<?xml version="1.0" encoding="utf-8"?>
<!-- Generator: Adobe Illustrator 19.2.1, SVG Export Plug-In . SVG Version: 6.00 Build 0)  -->
<svg version="1.1" id="Слой_1" xmlns="http://www.w3.org/2000/svg" xmlns:xlink="http://www.w3.org/1999/xlink" x="0px" y="0px"
	 viewBox="0 0 226.8 226.8" style="enable-background:new 0 0 226.8 226.8;" xml:space="preserve">
<style type="text/css">
	.st0{fill:#009FFF;}
</style>
<path class="st0" d="M195.5,21.8c0.1,1.4-1,2.6-2.3,2.6c-38.8,2.3-62.2,14.9-76.2,22.4c-9.8,5.2-16.3,8.7-21.1,4.6
	c-4.1-3.6,1-10.7,7.4-19.8c1.7-2.3,3.9-5.5,5.2-7.7c-5.9,2.9-15,15.3-21.3,23.9c-8.7,11.9-13.1,17.6-17.1,17.6
	c-1.5,0-2.7-0.6-3.4-1.8c-1.7-2.5-0.7-7.2,2.4-14.8C57.9,61.8,51.3,73.5,47.6,81.7c-5,11.1-6.1,18.2-6.1,18.3
	c-0.2,1.2-1.2,2.1-2.5,2.1c-0.1,0-0.2,0-0.4,0c-1.4-0.2-2.3-1.5-2.1-2.8c0.2-1.2,4.6-30.3,38.1-64c1.1-1.1,2.5-1,3.4-0.4
	c1.9,1.3,1.3,2.6-1,7.9c-1.5,3.5-5.9,13.3-6.1,17.1c2.7-2,8.2-9.5,12.3-15.1c11.4-15.6,20.1-26.6,27.6-26.6c2.1,0,3,1.3,3.3,1.8
	c1.4,2.8-1,6.4-6.7,14.4c-2.8,3.9-7.8,11-7.9,13.3c2.4,1.5,7.5-1.3,15.2-5.4c14.4-7.7,38.4-20.6,78.3-23
	C194.3,19.4,195.4,20.4,195.5,21.8z M86,81.4c1,0,1.9-0.6,2.3-1.6c1.6-4,16.1-11.7,25.9-15.9c1.3-0.5,1.9-2,1.3-3.3s-2-1.9-3.3-1.3
	c-0.3,0.1-6.3,2.7-12.8,6.2C85.7,72.9,84.2,76.7,83.7,78c-0.5,1.3,0.1,2.7,1.4,3.3C85.4,81.4,85.7,81.4,86,81.4z M165.2,57.9
	c0.2,0,0.5,0,0.7-0.1l14.8-4.2c1.3-0.4,2.1-1.8,1.7-3.1c-0.4-1.3-1.8-2.1-3.1-1.7L164.6,53c-1.3,0.4-2.1,1.8-1.7,3.1
	C163.2,57.2,164.2,57.9,165.2,57.9z M149.6,147.6c-10.6,8.4-20.9,12.1-30.6,10.8c-12.7-1.6-20.2-11.2-20.3-11.4
	c-0.8-1.1-2.4-1.3-3.5-0.5c-1.1,0.8-1.3,2.4-0.5,3.5c0.4,0.5,8.7,11.4,23.6,13.3c1.5,0.2,2.9,0.3,4.4,0.3c9.8,0,19.8-4.1,30-12.1
	c1.1-0.9,1.3-2.4,0.4-3.5C152.3,147,150.7,146.8,149.6,147.6z M191.5,91.3c0,6.3-1.6,12.7-4.4,17.5c-3.5,5.9-8.6,9.1-14.5,9.1
	c-3.3,0-6.5-0.6-9.3-1.8c-4.5,5.2-14.6,10.5-21.6,13.7c-0.3,0.2-0.7,0.2-1,0.2c-0.9,0-1.8-0.5-2.3-1.5c-0.6-1.3,0-2.7,1.2-3.3
	c9.8-4.5,18.9-10.4,20.7-13.2c0-0.1,0.1-0.2,0.1-0.3c0-0.1,0.1-0.1,0.1-0.2c0-0.1,0.1-0.2,0.1-0.3c-0.1-0.4-0.5-0.9-1.5-1.3
	c-4.2-1.5-14.1,1.4-19.8,4.9c-0.3,0.2-0.7,0.3-1,0.4c-0.4,10.7-6.7,16.1-11.4,18.7c-4.6,2.5-10.2,3.8-15.7,3.8
	c-7.7,0-15-2.4-18.4-6.8c-6.9-8.8-6.3-23.2-6-29c-6.2,0.6-18.8,7.6-27.5,12.4c-6,3.3-11.1,6.1-14.7,7.5c-3.9,1.5-4.4,2.4-4.4,2.6
	c-0.2,0.5,0.8,2.3,1.6,3.8l0.3,0.6c1,1.8,1.3,3.6,0.8,5.3c4.1-8.4,14.6-12.3,20.7-13.2c1.4-0.2,2.6,0.7,2.8,2.1
	c0.2,1.4-0.7,2.6-2.1,2.8c-0.2,0-18.3,3-18.3,15.9c0,5.4,3.5,6.2,5.5,6.2c0,0,0,0,0,0c3,0,6.9-3.2,8.6-5.3c0,0,0.1-0.1,0.1-0.1
	c0,0,0,0,0-0.1c4-4.3,6.5-10.4,6.5-10.5c0.5-1.3,2-1.9,3.3-1.4s1.9,2,1.4,3.3c-0.1,0.3-2.5,6-6.5,10.8c7.2,19.4,19.1,35.8,33.5,46.3
	c13.5,9.8,28.7,13.9,41.6,11.3c24.9-5,24-41.6,24-42c0-1.4,1-2.5,2.4-2.6c1.4,0,2.5,1,2.6,2.4c0,0.4,0.3,10.3-2.9,21
	c-4.3,14.6-13,23.6-25.1,26.1c-2.8,0.6-5.8,0.9-8.8,0.9c-24.9,0-55.4-19.3-71.1-59.3c-2.6,2.2-6.1,4.3-9.6,4.3c0,0,0,0,0,0
	c-5.2,0-10.5-3.5-10.5-11.2c0-2.3,0.4-4.4,1.2-6.3c-0.1,0.1-0.1,0.2-0.2,0.3c-1.1,1.5-2.9,2.3-4.7,1.9c-1.1-0.2-3.8-1.2-4.9-5.7
	c-1.2-4.8-0.1-9.8,3.4-15c9.4-14.1,32.6-25.4,48.7-27.8c6.6-1,11.4-4.3,11.4-4.3c1.1-0.8,2.7-0.5,3.5,0.6c0.8,1.1,0.5,2.7-0.6,3.5
	c-0.2,0.2-5.8,4-13.6,5.2c-17.4,2.6-35.8,13.8-43.7,23.5c0.3-0.1,0.7-0.3,1-0.4c3.2-1.2,8.5-4.1,14.1-7.2
	c15.3-8.4,26.6-14.3,33-12.8c0.9,0.2,1.4,0.7,1.7,1.4c0-0.1,0-0.1,0-0.1c-0.1-1.4,0.9-2.6,2.3-2.7c1.4-0.1,2.6,0.9,2.7,2.3
	c0.8,11.4,4.6,25.1,18,25.1c2.4,0,4-0.8,5.3-2.4c4-5.1,2.5-17.2,1.2-23.1c-5,0.1-14.8,3-20.5,5.1c-1.3,0.5-2.7-0.2-3.2-1.5
	c-0.5-1.3,0.2-2.7,1.5-3.2c1.8-0.7,17.8-6.5,24.7-5.2c1,0.2,1.7,0.9,2,1.8c0.1,0.2,1.3,5.1,1.8,11c0.7,8.3-0.5,14.4-3.4,18.2
	c-2.2,2.8-5.4,4.3-9.2,4.3c-12.7,0-20.7-9.5-22.7-26.8c0,0.2,0,0.4,0,0.7c-0.3,5.1-0.9,18.5,5,26c4.1,5.2,18.3,7,27.8,1.8
	c8.5-4.8,10.9-13.7,6.9-26c-1.2-0.1-2.1-1.1-2.2-2.3c-0.4-5.1-2.3-9.8-3.5-12.3c-5.5,1.4-17.1,2.6-21,3c-1.4,0.1-2.6-0.9-2.7-2.2
	c-0.1-1.4,0.9-2.6,2.2-2.7c5.9-0.6,12.4-1.4,16.8-2.1c0.1-0.1,0.1-0.1,0.2-0.2c0.6-0.4,14.9-10.7,24.3-10.9c3-0.1,5.6,1.2,7.6,3.6
	c4.3-1.3,15.5-4.5,27-4.5C186.9,73.2,191.5,80.5,191.5,91.3z M38.1,132.5c0-0.3-0.1-0.7-0.4-1.2l-0.3-0.6c0,0,0-0.1-0.1-0.1
	c0,0.1,0,0.1,0,0.2C37.6,131.7,37.9,132.2,38.1,132.5z M133.8,98.8c8.5-0.3,16.6-1.9,17.2-3.7c1.1-3,1.1-10.1-1.6-13.8
	c-1.1-1.5-2.3-2.1-3.9-2.2c-4.5,0.1-11.2,3.5-16.2,6.4C130.3,87.2,132.9,92.5,133.8,98.8z M151.4,105.2c-0.8-1.4-1.4-2.7-1.8-3.7
	c-2.9,1-7,1.9-13.1,2.2c0.7,2.3,1.1,4.4,1.4,6.4C141.5,108.1,146.6,106.1,151.4,105.2z M160.9,105.4c0.4,0.2,0.8,0.3,1.2,0.6
	c-3.3-3.5-4.8-9.4-5.3-14.5c-0.1,2.1-0.4,4-0.9,5.3c-0.2,0.6-0.7,1.4-1.7,2.3c0.4,1.2,1.4,3.4,3,5.7
	C158.4,104.8,159.7,105,160.9,105.4z M168.8,103.9c2.1,0,3.9-1,5.4-3c2.9-3.7,4.1-10,3.8-14.5l-16.4,1.7
	C161.7,92.9,163.2,103.9,168.8,103.9z M186.5,91.3c0-6.3-2-13.1-6.5-13.1c-9.9,0-19.9,2.6-24.5,4c0.5,1.6,0.9,3.2,1.1,4.9
	c0.2-1,1.1-1.8,2.1-1.9c0.2-1,1.1-1.8,2.2-1.9l18.9-2c1.2-0.1,2.4,0.7,2.7,1.9c1.4,5.6,0.2,15.2-4.3,21c-2.5,3.2-5.7,4.9-9.4,4.9
	c-1.8,0-3.3-0.5-4.6-1.2c0.5,0.6,1,1.4,1.2,2.2c0.2,0.6,0.2,1.1,0.2,1.7c2.2,0.9,4.5,1.3,7.1,1.3c5.2,0,8.4-3.6,10.2-6.7
	C185.2,102.2,186.5,96.8,186.5,91.3z M110.1,105.5c0-1.4-1.1-2.5-2.5-2.5s-2.5,1.1-2.5,2.5c0,1.4,1.1,2.5,2.5,2.5
	S110.1,106.9,110.1,105.5z M169.7,91.8c0-1.4-1.1-2.5-2.5-2.5s-2.5,1.1-2.5,2.5c0,1.4,1.1,2.5,2.5,2.5S169.7,93.2,169.7,91.8z"/>
</svg>
