<?xml version="1.0" encoding="utf-8"?>
<!-- Generator: Adobe Illustrator 19.2.1, SVG Export Plug-In . SVG Version: 6.00 Build 0)  -->
<svg version="1.1" id="Слой_1" xmlns="http://www.w3.org/2000/svg" xmlns:xlink="http://www.w3.org/1999/xlink" x="0px" y="0px"
	 viewBox="0 0 226.8 226.8" style="enable-background:new 0 0 226.8 226.8;" xml:space="preserve">
<style type="text/css">
	.st0{fill:#009FFF;}
</style>
<path class="st0" d="M116.1,43.3c0-1.4,1.1-2.5,2.5-2.5s2.5,1.1,2.5,2.5s-1.1,2.5-2.5,2.5S116.1,44.7,116.1,43.3z M107.1,45.3
	c0-1.4-1.1-2.5-2.5-2.5s-2.5,1.1-2.5,2.5s1.1,2.5,2.5,2.5S107.1,46.7,107.1,45.3z M86.3,150.2c19.2-17.2,20.5-34.3,20.5-35.1
	c0.1-1.4-1-2.6-2.3-2.6c-1.4-0.1-2.6,1-2.6,2.3c0,0.2-1.2,15.8-18.9,31.6c-1,0.9-1.1,2.5-0.2,3.5c0.5,0.6,1.2,0.8,1.9,0.8
	C85.3,150.8,85.9,150.6,86.3,150.2z M75.8,135.3c1.2-0.7,1.6-2.2,0.9-3.4c-0.7-1.2-2.2-1.6-3.4-0.9c-3.7,2.2-9.5,8.5-5.3,17.1
	c0.4,0.9,1.3,1.4,2.3,1.4c0.4,0,0.7-0.1,1.1-0.3c1.2-0.6,1.8-2.1,1.2-3.3C69.4,139.4,75.2,135.7,75.8,135.3z M123,123.8
	c-1.4-0.1-2.6,1-2.6,2.3c0,0.3-1.8,28.8-10.8,38.5c-0.9,1-0.9,2.6,0.1,3.5c0.5,0.4,1.1,0.7,1.7,0.7c0.7,0,1.3-0.3,1.8-0.8
	c10.2-11,12.1-40.4,12.1-41.6C125.4,125.1,124.3,123.9,123,123.8z M114.7,119.1c-1.3-0.4-2.7,0.3-3.1,1.6
	c-17.9,56.5-50.1,61.9-50.5,61.9c-1.4,0.2-2.3,1.4-2.1,2.8c0.2,1.3,1.2,2.2,2.5,2.2c0.1,0,0.2,0,0.3,0c1.4-0.2,35.6-5.4,54.6-65.4
	C116.8,121,116,119.5,114.7,119.1z M57.3,206.3c-4-0.6-6.9-2.5-8.2-5.3c-1.3-2.7-1-6,0.8-9.3c0.5-0.8,0.9-1.4,1.2-1.9
	c0.3-0.1,0.5-0.2,0.8-0.3c2.2-0.8,2.9-2.4,2.8-3.6c-0.1-1.2-0.9-2.2-2.1-2.5c-1.3-0.3-2.7,0.3-4.2,1.7c-1.2,0.1-2.7-0.4-4.1-2.5
	c-2.8-4.3-2.8-12.5,1.3-16.7c1-1,1-2.6,0-3.5c-1-1-2.6-1-3.5,0c-6,6-5.9,16.9-2,22.9c1.4,2.1,3.2,3.6,5.2,4.3
	c-2.4,4.6-2.7,9.5-0.7,13.5c2.1,4.3,6.3,7.1,11.9,8c0.1,0,0.3,0,0.4,0c1.2,0,2.3-0.9,2.5-2.1C59.6,207.8,58.7,206.5,57.3,206.3z
	 M139.6,58.7c4.5,25.8,3.1,27.9,2.6,28.8c-0.7,1.1-1.6,2.6-12.1,2.6c-1.9,0-4.2-0.1-6.8-0.2c-0.2,0-15.4-0.7-17.7-2
	c-1-0.6-2-1.1-9.1-24.2c-3.2-10.5-7.1-24-8.1-28.9c-0.3-1.3-0.5-2.5,0.3-3.6c0.9-1.1,1.8-2.3,21.2-2c6.6,0.1,20.3,0.3,20.4,0.3
	c0.8,0,1.6,0.4,2,1.1c0.1,0.1,0.2,0.2,0.3,0.3C134.8,32.7,137.6,47,139.6,58.7z M129.2,34.3c-3.4,0-13.8-0.1-19.3-0.2
	c-8.3-0.2-13.9,0-16.4,0.3c1.9,8.6,12.5,43.6,15,49.1c2,0.4,7.9,1,14.5,1.3c9,0.4,13.3,0,14.9-0.4C138.3,77.7,131.7,39.9,129.2,34.3
	z M124.3,55.4c3.6,11.6,4.2,18.7,1.9,21c-0.8,0.8-1.8,1.2-2.9,1.2c0,0-0.1,0-0.1,0c-3.1-0.1-7-3.4-9.3-5.6c-1.8,1.1-3.4,1.7-4.7,1.7
	c-0.4,0-0.8-0.1-1.1-0.2c-0.9-0.3-1.6-0.9-2-1.7c-1-2,0.1-4.7,2-9.4c1.4-3.2,1.2-6,1.2-6c-0.1-1.4,1-2.6,2.3-2.6
	c1.4-0.1,2.6,0.9,2.7,2.3c0,0.2,0.2,3.9-1.6,8.3c-0.4,0.9-0.9,2.2-1.3,3.3c1.8-1.1,4.7-3.5,8.9-8.7c-0.2-0.7-0.4-1.4-0.6-2.1
	c-0.4-1.3,0.3-2.7,1.7-3.1C122.5,53.3,123.9,54.1,124.3,55.4z M121.6,64.9c-1.3,1.5-2.6,2.8-3.8,3.9c1.8,1.7,3.7,3.1,4.8,3.6
	C122.7,70.9,122.3,68.2,121.6,64.9z M126.9,91.3c-1.8,0.1-9,0.2-9.3,0.2c-2.3,0-4.2,1.8-4.3,4.3c-0.1,2.3,1.5,4.9,4.6,5.2
	c1.1,0.1,2.3,0.1,3.6,0.1c2.4,0,4.9-0.2,6.6-0.6c2.2-0.6,3.5-2.7,3.1-5.1C130.9,92.8,129.1,91.2,126.9,91.3z M195.3,104.5
	c-0.6,0.6-1.2,0.9-2.1,0.9c-1.6,0-3.9-0.9-8.1-3c-1.6-0.8-3.4-1.8-5.5-2.9c-0.5,2.9-2.2,5.8-6.3,6.6c-0.4,0.1-0.8,0.1-1.2,0.1
	c-1.2,0-2.3-0.4-3.3-1.2c-3.4-2.8-4-10.4-4.1-13.9c-3.7-2.2-7.1-4.2-9.7-5.7c0.3,3,0.3,5.6,0.2,7.9c-0.6,7.1-3.8,11-9.9,12
	c-3.4,0.6-14.5,1.8-24.6,1.8c-8.1,0-15.4-0.8-17.5-3.2c-2.3-2.6-6.1-12.7-10.4-24.9c0,0.8-0.3,1.6-0.9,2.1C91,81.6,89.9,81.6,89,81
	c-0.1,0.1-0.3,0.2-0.6,0.4c-0.3,0.2-1.2,0.8-2.5,1.8c0.4,2.7,0.4,7.7-3.7,11.8c-1.7,1.7-3.4,2.2-4.7,2.2c-0.4,0-0.7,0-1-0.1
	c-2.2-0.4-3.8-2-4.9-3.5c-16.1,11.5-19.1,13.1-20.4,13.1c-0.2,0-0.4-0.1-0.7-0.1c-2.5-0.7-2.7-3.2-1.7-11.7c0.5-4.4,1.2-8.8,1.2-8.8
	c0.1-0.5,0.3-1,0.7-1.4l32.9-32.9c-5.3-16.1-7.7-28-1.7-31c6.8-3.3,14.5-5.3,30-4.1c15.2,1.2,24.3,1.9,28.5,8.2
	c2.5,3.7,4.9,10.3,7.2,19c4.7,4.1,36.8,31.8,47.5,37.8c0.7,0.4,1.2,1.1,1.3,1.9C198.1,101.7,196,103.8,195.3,104.5z M78.7,91.4
	c1.5-1.5,2.1-3.2,2.3-4.7c-1.9,1.4-3.7,2.7-5.4,3.9c0.6,0.8,1.2,1.4,1.8,1.5C77.8,92.2,78.4,91.7,78.7,91.4z M92.4,77.5
	c-0.8-2.4-1.7-4.9-2.6-7.4c-0.5-1.5-1-2.9-1.4-4.1l-1-2.9c-0.7-2.1-1.4-4.1-2.1-6L54.7,87.6c-0.7,4.4-1.2,9.3-1.5,12.5
	c6.6-4.2,21.9-15.3,27.6-19.5c2.5-1.8,4.1-3,4.6-3.3c3.4-2.3,5.9-0.9,6.8,0.1C92.3,77.4,92.4,77.5,92.4,77.5z M147.5,67.8
	c-4.9-28.6-9.9-37.9-11.4-40.1c-2.7-4.1-10.3-4.9-24.7-6C97,20.5,90.3,22.2,84,25.3c0,0-2.1,1.2,0.6,12.5c1.8,7.5,4.9,16.5,7.5,23.6
	l1,3c0.4,1.2,0.9,2.6,1.4,4.1c3.3,9.5,10.1,29.2,12.5,32c2.8,2.2,25.7,1.8,37.4-0.2c3.3-0.6,5.4-2,5.8-7.5
	C150.7,87.3,149.4,78.9,147.5,67.8z M174.8,96.8c-1.3-0.7-2.6-1.5-4-2.3c-0.3-0.2-0.5-0.3-0.8-0.5c0.3,3.3,1.1,6.3,2.1,7.1
	c0.1,0.1,0.1,0.1,0.3,0.1C174.6,100.7,174.9,98.3,174.8,96.8z M191.5,85.4c-9.8-6-31.4-24.2-41.9-33.1c1,4.5,2,9.4,2.9,14.7
	c0.8,4.4,1.4,8.5,1.9,12.1c4.7,2.9,9.6,5.8,14.3,8.5c0,0,0,0,0.1,0c10.3,6,19.4,11,23.1,12.4C192.1,97.1,192,90.9,191.5,85.4z"/>
</svg>
