<svg id="Слой_1" data-name="Слой 1" xmlns="http://www.w3.org/2000/svg" viewBox="0 0 64.99 65.09"><title>callback</title><path d="M412.35,287.75a6.4,6.4,0,0,0-4.64-2.13,6.62,6.62,0,0,0-4.7,2.12l-4.34,4.33-1.06-.55c-0.49-.25-1-0.48-1.36-0.73a47.17,47.17,0,0,1-11.31-10.3,27.83,27.83,0,0,1-3.71-5.85c1.13-1,2.17-2.1,3.19-3.13l1.15-1.17a6.3,6.3,0,0,0,0-9.51l-3.75-3.75c-0.43-.43-0.87-0.87-1.28-1.3-0.82-.85-1.69-1.73-2.58-2.56a6.5,6.5,0,0,0-4.6-2,6.73,6.73,0,0,0-4.67,2l0,0L364,258a10.05,10.05,0,0,0-3,6.39,24.08,24.08,0,0,0,1.76,10.19,59.15,59.15,0,0,0,10.51,17.53,64.64,64.64,0,0,0,21.53,16.86,33.53,33.53,0,0,0,12.09,3.57l0.87,0a10.35,10.35,0,0,0,7.93-3.41s0,0,.06-0.07a31.08,31.08,0,0,1,2.4-2.49c0.59-.56,1.19-1.15,1.79-1.77A6.85,6.85,0,0,0,422,300a6.6,6.6,0,0,0-2.12-4.71Zm4.92,14.46s0,0,0,0c-0.54.58-1.09,1.1-1.68,1.68a36.08,36.08,0,0,0-2.65,2.75,6.62,6.62,0,0,1-5.17,2.18h-0.63a29.79,29.79,0,0,1-10.71-3.21,61,61,0,0,1-20.28-15.88,55.78,55.78,0,0,1-9.89-16.47,19.62,19.62,0,0,1-1.54-8.6,6.31,6.31,0,0,1,1.9-4.08l4.68-4.68a3.12,3.12,0,0,1,2.09-1,2.94,2.94,0,0,1,2,1l0,0c0.84,0.78,1.63,1.59,2.47,2.46l1.31,1.33,3.75,3.75c1.46,1.46,1.46,2.8,0,4.26-0.4.4-.78,0.8-1.18,1.18-1.15,1.18-2.25,2.28-3.45,3.35a0.34,0.34,0,0,0-.07.07,2.8,2.8,0,0,0-.71,3.12l0,0.12a30.09,30.09,0,0,0,4.44,7.24h0a50.42,50.42,0,0,0,12.2,11.1,18.69,18.69,0,0,0,1.69.92c0.49,0.25,1,.48,1.36.73l0.16,0.1a3,3,0,0,0,1.36.34,2.94,2.94,0,0,0,2.09-.95l4.7-4.7a3.11,3.11,0,0,1,2.07-1,2.8,2.8,0,0,1,2,1l7.6,7.6c1.42,1.4,1.42,2.84,0,4.3h0Zm0,0" transform="translate(-360.96 -247.43)"/><path d="M396.09,262.92a17.68,17.68,0,0,1,14.4,14.4,1.84,1.84,0,0,0,1.83,1.54l0.32,0a1.86,1.86,0,0,0,1.52-2.14,21.38,21.38,0,0,0-17.42-17.42,1.86,1.86,0,0,0-2.14,1.51,1.83,1.83,0,0,0,1.5,2.14h0Zm0,0" transform="translate(-360.96 -247.43)"/><path d="M425.92,276.15a35.2,35.2,0,0,0-28.68-28.68,1.85,1.85,0,1,0-.6,3.65,31.44,31.44,0,0,1,25.63,25.63,1.84,1.84,0,0,0,1.83,1.54l0.32,0a1.82,1.82,0,0,0,1.51-2.12h0Zm0,0" transform="translate(-360.96 -247.43)"/></svg>