<svg id="Слой_1" data-name="Слой 1" xmlns="http://www.w3.org/2000/svg" viewBox="0 0 71.44 52.05"><title>credit-card</title><path d="M133.44,64.61H93.5a7.88,7.88,0,0,0-7.87,7.87v2a1.53,1.53,0,1,0,3.05,0v-2a4.82,4.82,0,0,1,4.81-4.81h39.93a4.82,4.82,0,0,1,4.81,4.81V78.2H77.73a7.88,7.88,0,0,0-7.87,7.87v22.73a7.88,7.88,0,0,0,7.87,7.87h39.93a7.88,7.88,0,0,0,7.87-7.87V90.71h12.72v4.5a4.82,4.82,0,0,1-4.81,4.81h-4.3a1.53,1.53,0,1,0,0,3.05h4.3a7.88,7.88,0,0,0,7.87-7.87V72.48a7.88,7.88,0,0,0-7.87-7.87h0Zm-4,23h-3.39a1.55,1.55,0,0,0,.4-0.29l6.12-6.12h3.22l-6.14,6.14a1.52,1.52,0,0,0-.21.26h0Zm-4.17-3.42a7.83,7.83,0,0,0-1.43-3h4.42Zm-2.84,24.56a4.82,4.82,0,0,1-4.81,4.81H77.73a4.82,4.82,0,0,1-4.81-4.81V86.06a4.82,4.82,0,0,1,4.81-4.81h39.93a4.82,4.82,0,0,1,4.81,4.81v22.73Zm11.27-21.14,4-4v4h-4Zm0,0" transform="translate(-69.86 -64.61)"/><path d="M90.28,100.91a1.53,1.53,0,0,0-1.53,1.53v4.77H79.31V99.75h6.53a1.53,1.53,0,1,0,0-3.05H77.78a1.53,1.53,0,0,0-1.53,1.53v10.51a1.53,1.53,0,0,0,1.53,1.53h12.5a1.53,1.53,0,0,0,1.53-1.53v-6.3a1.53,1.53,0,0,0-1.53-1.53h0Zm0,0" transform="translate(-69.86 -64.61)"/><path d="M117.06,100H99.21a1.53,1.53,0,1,0,0,3.05h17.85a1.53,1.53,0,1,0,0-3.05h0Zm0,0" transform="translate(-69.86 -64.61)"/><path d="M117.06,107.21H99.21a1.53,1.53,0,1,0,0,3.05h17.85a1.53,1.53,0,1,0,0-3.05h0Zm0,0" transform="translate(-69.86 -64.61)"/></svg>