<svg id="Слой_1" data-name="Слой 1" xmlns="http://www.w3.org/2000/svg" viewBox="0 0 71.41 61.92"><title>handshake</title><path d="M139.82,268.24L125.29,253.7a4.87,4.87,0,0,0-6.89,0L115,257.12a4.84,4.84,0,0,0-1.14,1.8l-16-2.86h0a13.34,13.34,0,0,0-15.65,10.43l-0.74,3.66a7.47,7.47,0,1,0,14.65,3l0.45-2.24,7.17,0.63,22.11,22.11a1.76,1.76,0,1,1-2.49,2.49L114.27,287A1.62,1.62,0,0,0,112,289.3l9.09,9.09a1.76,1.76,0,1,1-2.49,2.49l-9.09-9.09a1.62,1.62,0,1,0-2.29,2.29l9.09,9.09a1.76,1.76,0,0,1-2.49,2.49l-9.09-9.09a1.62,1.62,0,0,0-2.29,2.29l9.09,9.09a1.76,1.76,0,1,1-2.49,2.49L76.85,278.29,72.61,274a1.62,1.62,0,0,0-2.29,2.29l4.25,4.25,4.62,4.62-2.55,2.55a4.42,4.42,0,0,0,0,6.24l0.83,0.83a4.39,4.39,0,0,0,2.68,1.27,4.38,4.38,0,0,0,1.27,2.68l0.83,0.83a4.39,4.39,0,0,0,2.68,1.27,4.38,4.38,0,0,0,1.27,2.68L87,304.39a4.38,4.38,0,0,0,2.68,1.27A4.39,4.39,0,0,0,91,308.35l0.83,0.83a4.42,4.42,0,0,0,6.24,0l2.55-2.55,6.1,6.1a5,5,0,0,0,8.53-3.33,5,5,0,0,0,4.78-4.79,5,5,0,0,0,4.78-4.78,5,5,0,0,0,3.33-8.53l-2.25-2.25,13.93-13.93a4.88,4.88,0,0,0,0-6.89h0ZM78.93,291.7a1.18,1.18,0,0,1,0-1.66l2.39-2.39,2.49,2.49-2.39,2.39a1.18,1.18,0,0,1-1.66,0Zm4.78,4.78a1.17,1.17,0,0,1,0-1.66l2.39-2.39,2.49,2.49-2.39,2.39a1.18,1.18,0,0,1-1.66,0Zm4.78,4.78a1.17,1.17,0,0,1,0-1.66l2.39-2.39,2.49,2.49L91,302.1a1.18,1.18,0,0,1-1.66,0Zm7.28,5.62a1.18,1.18,0,0,1-1.66,0l-0.83-.83a1.17,1.17,0,0,1,0-1.66L95.67,302l2.49,2.49Zm27.83-20.12-18-18a1.62,1.62,0,0,0-1-.47l-9.2-.8H95.26a1.62,1.62,0,0,0-1.59,1.3l-0.74,3.66a4.23,4.23,0,0,1-8.29-1.67l0.74-3.66a10.09,10.09,0,0,1,11.87-7.89h0L113,262.07l17.63,17.63Zm13.93-13.93L133,277.4l-15.69-15.69a1.63,1.63,0,0,1,0-2.31l3.42-3.42a1.63,1.63,0,0,1,2.31,0l14.54,14.54a1.63,1.63,0,0,1,0,2.31h0Zm0,0" transform="translate(-69.84 -252.27)"/></svg>