<svg id="Слой_1" data-name="Слой 1" xmlns="http://www.w3.org/2000/svg" viewBox="0 0 51.04 70.54"><title>ico-private-4</title><path d="M408.8,348.7H400a3.59,3.59,0,0,0-3.39-2.44h-3.72a6,6,0,0,0-9.62,0h-3.72a3.59,3.59,0,0,0-3.39,2.44h-8.8a4.8,4.8,0,0,0-4.8,4.8v56.07a4.8,4.8,0,0,0,4.8,4.8H408.8a4.8,4.8,0,0,0,4.8-4.8V353.49a4.8,4.8,0,0,0-4.8-4.8h0Zm-32.65,7.16a3.59,3.59,0,0,0,3.39,2.44h17.06a3.59,3.59,0,0,0,3.39-2.44h6.43V407.2H369.72V355.86h6.43Zm3.39-7.31h4.33a1.14,1.14,0,0,0,1-.57,3.69,3.69,0,0,1,6.42,0,1.14,1.14,0,0,0,1,.57h4.33a1.3,1.3,0,0,1,1.29,1.29v4.87h0a1.3,1.3,0,0,1-1.29,1.29H379.55a1.3,1.3,0,0,1-1.3-1.29h0v-4.87a1.3,1.3,0,0,1,1.3-1.29h0Zm31.77,61a2.52,2.52,0,0,1-2.51,2.51H367.36a2.52,2.52,0,0,1-2.51-2.51V353.49a2.52,2.52,0,0,1,2.51-2.51H376v2.59h-7.39a1.14,1.14,0,0,0-1.14,1.14v53.63a1.14,1.14,0,0,0,1.14,1.14h39a1.14,1.14,0,0,0,1.14-1.14V354.71a1.14,1.14,0,0,0-1.14-1.14h-7.39V351h8.61a2.52,2.52,0,0,1,2.51,2.51v56.07Zm0,0" transform="translate(-362.56 -343.82)"/><path d="M388.08,353.42a1.14,1.14,0,0,0,1.14-1.14v-2.44a1.14,1.14,0,1,0-2.29,0v2.44a1.14,1.14,0,0,0,1.14,1.14h0Zm0,0" transform="translate(-362.56 -343.82)"/><path d="M389.3,369.26h7.31a1.14,1.14,0,1,0,0-2.29H389.3a1.14,1.14,0,0,0,0,2.29h0Zm0,0" transform="translate(-362.56 -343.82)"/><path d="M389.3,374.14h12.19a1.14,1.14,0,1,0,0-2.29H389.3a1.14,1.14,0,0,0,0,2.29h0Zm0,0" transform="translate(-362.56 -343.82)"/><path d="M377.52,373.8a1.14,1.14,0,0,0,1.62,0l6.09-6.09a1.14,1.14,0,0,0-1.62-1.62l-5.29,5.29-2.85-2.85a1.14,1.14,0,0,0-1.62,1.62Zm0,0" transform="translate(-362.56 -343.82)"/><path d="M389.3,381.45h7.31a1.14,1.14,0,1,0,0-2.29H389.3a1.14,1.14,0,0,0,0,2.29h0Zm0,0" transform="translate(-362.56 -343.82)"/><path d="M389.3,386.33h12.19a1.14,1.14,0,1,0,0-2.29H389.3a1.14,1.14,0,0,0,0,2.29h0Zm0,0" transform="translate(-362.56 -343.82)"/><path d="M377.52,386a1.14,1.14,0,0,0,1.62,0l6.09-6.09a1.14,1.14,0,1,0-1.62-1.62l-5.29,5.29-2.85-2.85a1.14,1.14,0,0,0-1.62,1.62Zm0,0" transform="translate(-362.56 -343.82)"/><path d="M389.3,393.64h7.31a1.14,1.14,0,1,0,0-2.29H389.3a1.14,1.14,0,0,0,0,2.29h0Zm0,0" transform="translate(-362.56 -343.82)"/><path d="M389.3,398.52h12.19a1.14,1.14,0,1,0,0-2.29H389.3a1.14,1.14,0,0,0,0,2.29h0Zm0,0" transform="translate(-362.56 -343.82)"/><path d="M377.52,398.18a1.14,1.14,0,0,0,1.62,0l6.09-6.09a1.14,1.14,0,0,0-1.62-1.62l-5.29,5.29-2.85-2.85a1.14,1.14,0,0,0-1.62,1.62Zm0,0" transform="translate(-362.56 -343.82)"/></svg>