<svg id="Слой_1" data-name="Слой 1" xmlns="http://www.w3.org/2000/svg" viewBox="0 0 64.41 57.75"><title>ico-private-3</title><path d="M135.2,580.35H73.41a1.31,1.31,0,0,0-1.31,1.31v18.4a1.31,1.31,0,0,0,1.31,1.31H135.2a1.31,1.31,0,0,0,1.31-1.31v-18.4a1.31,1.31,0,0,0-1.31-1.31h0Zm-1.31,18.4H74.73V583h59.15v15.77Zm0,0" transform="translate(-72.1 -543.63)"/><path d="M77.53,593.5a1.31,1.31,0,0,0,1.8.48l1.44-.83v1.67a1.31,1.31,0,1,0,2.63,0v-1.67L84.84,594a1.31,1.31,0,0,0,1.31-2.28l-1.44-.83,1.44-.83a1.31,1.31,0,0,0-1.31-2.28l-1.44.83v-1.67a1.31,1.31,0,1,0-2.63,0v1.67l-1.44-.83A1.31,1.31,0,0,0,78,590l1.44,0.83L78,591.7a1.31,1.31,0,0,0-.48,1.8h0Zm0,0" transform="translate(-72.1 -543.63)"/><path d="M90.1,590l1.44,0.83-1.44.83A1.31,1.31,0,1,0,91.42,594l1.44-.83v1.67a1.31,1.31,0,0,0,2.63,0v-1.67L96.93,594a1.31,1.31,0,1,0,1.31-2.28l-1.44-.83,1.44-.83a1.31,1.31,0,0,0-1.31-2.28l-1.44.83v-1.67a1.31,1.31,0,0,0-2.63,0v1.67l-1.44-.83A1.31,1.31,0,0,0,90.1,590h0Zm0,0" transform="translate(-72.1 -543.63)"/><path d="M101.71,593.5a1.31,1.31,0,0,0,1.8.48l1.44-.83v1.67a1.31,1.31,0,0,0,2.63,0v-1.67L109,594a1.31,1.31,0,0,0,1.31-2.28l-1.44-.83,1.44-.83a1.31,1.31,0,0,0-1.31-2.28l-1.44.83v-1.67a1.31,1.31,0,0,0-2.63,0v1.67l-1.44-.83a1.31,1.31,0,0,0-1.31,2.28l1.44,0.83-1.44.83a1.31,1.31,0,0,0-.48,1.8h0Zm0,0" transform="translate(-72.1 -543.63)"/><path d="M113.8,593.5a1.31,1.31,0,0,0,1.8.48l1.44-.83v1.67a1.31,1.31,0,0,0,2.63,0v-1.67l1.44,0.83a1.31,1.31,0,0,0,1.31-2.28l-1.44-.83,1.44-.83a1.31,1.31,0,1,0-1.31-2.28l-1.44.83v-1.67a1.31,1.31,0,0,0-2.63,0v1.67l-1.44-.83a1.31,1.31,0,0,0-1.31,2.28l1.44,0.83-1.44.83a1.31,1.31,0,0,0-.48,1.8h0Zm0,0" transform="translate(-72.1 -543.63)"/><path d="M126.26,596.13h3.62a1.31,1.31,0,0,0,0-2.63h-3.62a1.31,1.31,0,0,0,0,2.63h0Zm0,0" transform="translate(-72.1 -543.63)"/><path d="M94.36,578.47h19.89a3.2,3.2,0,0,0,3.2-3.2V560a3.2,3.2,0,0,0-3.2-3.2h-0.09v-3.29a9.86,9.86,0,0,0-19.72,0v3.29H94.36a3.2,3.2,0,0,0-3.2,3.2v15.29a3.2,3.2,0,0,0,3.2,3.2h0Zm2.72-25a7.23,7.23,0,0,1,14.46,0v3.29H108.9v-3.29a4.6,4.6,0,0,0-9.2,0v3.29H97.07v-3.29Zm9.2,0v3.29h-3.94v-3.29a2,2,0,0,1,3.94,0h0ZM93.79,560a0.57,0.57,0,0,1,.57-0.57h19.89a0.57,0.57,0,0,1,.57.57v15.29a0.57,0.57,0,0,1-.57.57H94.36a0.57,0.57,0,0,1-.57-0.57V560Zm0,0" transform="translate(-72.1 -543.63)"/><path d="M109.65,568.94h0a1.31,1.31,0,0,0,0-2.63h0a1.31,1.31,0,0,0,0,2.63h0Zm0,0" transform="translate(-72.1 -543.63)"/><path d="M98.93,568.94h6a1.31,1.31,0,1,0,0-2.63h-6a1.31,1.31,0,0,0,0,2.63h0Zm0,0" transform="translate(-72.1 -543.63)"/></svg>