<svg id="Слой_1" data-name="Слой 1" xmlns="http://www.w3.org/2000/svg" viewBox="0 0 51.04 70.54"><title>ico-private-1</title><path d="M127.54,348h-8.8a3.59,3.59,0,0,0-3.39-2.44h-3.72a6,6,0,0,0-9.62,0H98.29A3.59,3.59,0,0,0,94.89,348H86.1a4.8,4.8,0,0,0-4.8,4.8v56.07a4.8,4.8,0,0,0,4.8,4.8h41.44a4.8,4.8,0,0,0,4.8-4.8V352.78a4.8,4.8,0,0,0-4.8-4.8h0Zm-32.65,7.16a3.59,3.59,0,0,0,3.39,2.44h17.06a3.59,3.59,0,0,0,3.39-2.44h6.43v51.34H88.46V355.14h6.43Zm3.39-7.31h4.33a1.14,1.14,0,0,0,1-.57,3.69,3.69,0,0,1,6.42,0,1.14,1.14,0,0,0,1,.57h4.33a1.3,1.3,0,0,1,1.29,1.29V354h0a1.3,1.3,0,0,1-1.29,1.29H98.29A1.3,1.3,0,0,1,97,354h0v-4.87a1.3,1.3,0,0,1,1.3-1.29h0Zm31.77,61a2.52,2.52,0,0,1-2.51,2.51H86.1a2.52,2.52,0,0,1-2.51-2.51V352.78a2.52,2.52,0,0,1,2.51-2.51h8.61v2.59H87.32A1.14,1.14,0,0,0,86.17,354v53.63a1.14,1.14,0,0,0,1.14,1.14h39a1.14,1.14,0,0,0,1.14-1.14V354a1.14,1.14,0,0,0-1.14-1.14h-7.39v-2.59h8.61a2.52,2.52,0,0,1,2.51,2.51v56.07Zm0,0" transform="translate(-81.3 -343.11)"/><path d="M106.82,352.71a1.14,1.14,0,0,0,1.14-1.14v-2.44a1.14,1.14,0,1,0-2.29,0v2.44a1.14,1.14,0,0,0,1.14,1.14h0Zm0,0" transform="translate(-81.3 -343.11)"/><path d="M94.05,368.55h21.3a1.14,1.14,0,1,0,0-2.29H94.05a1.14,1.14,0,0,0,0,2.29h0Zm0,0" transform="translate(-81.3 -343.11)"/><path d="M94.05,373.43h26.17a1.14,1.14,0,1,0,0-2.29H94.05a1.14,1.14,0,0,0,0,2.29h0Zm0,0" transform="translate(-81.3 -343.11)"/><path d="M94.05,380.74h21.3a1.14,1.14,0,1,0,0-2.29H94.05a1.14,1.14,0,0,0,0,2.29h0Zm0,0" transform="translate(-81.3 -343.11)"/><path d="M94.05,385.61h26.17a1.14,1.14,0,1,0,0-2.29H94.05a1.14,1.14,0,0,0,0,2.29h0Zm0,0" transform="translate(-81.3 -343.11)"/><path d="M94.05,392.93h21.3a1.14,1.14,0,1,0,0-2.29H94.05a1.14,1.14,0,0,0,0,2.29h0Zm0,0" transform="translate(-81.3 -343.11)"/><path d="M94.05,397.8h26.17a1.14,1.14,0,1,0,0-2.29H94.05a1.14,1.14,0,0,0,0,2.29h0Zm0,0" transform="translate(-81.3 -343.11)"/></svg>