<svg id="Слой_1" data-name="Слой 1" xmlns="http://www.w3.org/2000/svg" viewBox="0 0 73.26 64.31"><title>ico-private-6</title><path d="M392.27,599.56a1.51,1.51,0,0,1-1.07-.43l-29.71-29.71a20,20,0,1,1,28.29-28.29l2.48,2.48,2.45-2.45A20,20,0,1,1,423,569.47l-29.65,29.65A1.54,1.54,0,0,1,392.27,599.56ZM375.6,538.32a16.93,16.93,0,0,0-11.93,28.92l28.61,28.61,28.55-28.57a16.94,16.94,0,1,0-23.94-24l-3.55,3.55a1.57,1.57,0,0,1-1.1.42,1.53,1.53,0,0,1-1.08-.42l-3.56-3.56A16.87,16.87,0,0,0,375.6,538.32Z" transform="translate(-355.61 -535.25)"/></svg>