<svg id="Слой_1" data-name="Слой 1" xmlns="http://www.w3.org/2000/svg" viewBox="0 0 70.47 70.47"><title>ico-private-2</title><path d="M85.95,478.33a1.28,1.28,0,1,1,0-2.57A1.29,1.29,0,0,1,85.95,478.33Z" transform="translate(-69.86 -437.71)"/><path d="M105.24,457.15a9.72,9.72,0,1,1,9.72-9.72A9.73,9.73,0,0,1,105.24,457.15Zm0-16.91a7.19,7.19,0,1,0,7.19,7.19A7.2,7.2,0,0,0,105.24,440.24Z" transform="translate(-69.86 -437.71)"/><path d="M96.78,469.84a1.26,1.26,0,1,1,0-2.53h16.91a1.26,1.26,0,0,1,0,2.53H96.78Z" transform="translate(-69.86 -437.71)"/><path d="M111.58,508.17a1.26,1.26,0,0,1-1.26-1.26v-3H98.89c-0.74,0-1.54,0-2.32-.11l-0.93-.08v3.15a1.26,1.26,0,0,1-1.26,1.26H85.92a1.26,1.26,0,0,1-1.26-1.26c0-.05,0-4.64,0-7.44v-0.4l-0.3-.25a23.17,23.17,0,0,1-5.7-7.24l-0.23-.46H75.35a5.49,5.49,0,0,1-5.49-5.48v-4.37a5.5,5.5,0,0,1,5.49-5.49h1.59l0.18-.62A22.43,22.43,0,0,1,82.32,466l0.23-.25v-9.85a1.26,1.26,0,0,1,1.26-1.26A13.73,13.73,0,0,1,93.9,459l0.32,0.34,0.46-.08a24.16,24.16,0,0,1,4.22-.41h10.57a22.56,22.56,0,0,1,22.31,20.37l0.07,0.77h0.78a5.11,5.11,0,0,0,5.18-5.08,5,5,0,0,0-1.49-3.59,1.26,1.26,0,1,1,1.79-1.79,7.61,7.61,0,0,1-5.38,13h-0.78l-0.17.77a23.22,23.22,0,0,1-3,9.45,22.53,22.53,0,0,1-7.1,7.57l-0.38.25V501c0,3.1,0,5.85,0,5.88a1.26,1.26,0,0,1-1.26,1.26h-8.46Zm0-11a1.26,1.26,0,0,1,1.26,1.26v7.19h5.93v-5.8a1.27,1.27,0,0,1,.63-1.09,20.47,20.47,0,0,0,9.93-17.5,19.9,19.9,0,0,0-19.88-19.88H98.89A22.09,22.09,0,0,0,94,462a1.28,1.28,0,0,1-.29,0,1.26,1.26,0,0,1-1-.48,11.49,11.49,0,0,0-6.64-4.15l-1-.21v9.09a1.27,1.27,0,0,1-.38.9A19.85,19.85,0,0,0,79.51,476c-0.05.32-.2,0.9-0.28,1.24a1.29,1.29,0,0,1-1.33,1.05H75.35a3,3,0,0,0-3,3v4.37a3,3,0,0,0,3,3c1.25,0,3.48,0,3.94,0a1.26,1.26,0,0,1,1.1.76,20.49,20.49,0,0,0,6.28,8.06,1.27,1.27,0,0,1,.5,1c0,1.56,0,4.4,0,6.36v0.85h5.93v-7.19a1.26,1.26,0,1,1,2.53,0v2.75l0.76,0.08a24.18,24.18,0,0,0,2.49.13h11.42v-3A1.26,1.26,0,0,1,111.58,497.19Z" transform="translate(-69.86 -437.71)"/></svg>