<svg id="Слой_1" data-name="Слой 1" xmlns="http://www.w3.org/2000/svg" viewBox="0 0 71.52 68.48"><title>ico-obmen</title><path d="M105.77,639.71a33.9,33.9,0,0,0-16.3,4.16l-2.17-3.34a1.85,1.85,0,0,0-3.2.16l-4.91,9.6A1.85,1.85,0,0,0,80.94,653l10.76-.55a1.85,1.85,0,0,0,1.46-2.85l-2.05-3.17A31,31,0,0,1,132.79,689a1.5,1.5,0,1,0,2.61,1.48A34,34,0,0,0,105.77,639.71Z" transform="translate(-68.26 -639.67)"/><path d="M127.1,694.86l-10.76.55a1.85,1.85,0,0,0-1.46,2.85l2.05,3.17a31,31,0,0,1-41.68-42.56,1.5,1.5,0,0,0-2.61-1.48A34,34,0,0,0,118.58,704l2.17,3.34a1.85,1.85,0,0,0,3.2-.16l4.91-9.6A1.85,1.85,0,0,0,127.1,694.86Z" transform="translate(-68.26 -639.67)"/><path d="M112.93,686.66a1.22,1.22,0,0,0,.42-0.08l9.54-3.52a1.22,1.22,0,0,0,.72-1.56,1.22,1.22,0,0,0-1.56-.72l-9.54,3.52A1.22,1.22,0,0,0,112.93,686.66Z" transform="translate(-68.26 -639.67)"/><path d="M109.9,687.78a1.2,1.2,0,0,0,.42-0.08l0.4-.15a1.22,1.22,0,1,0-.84-2.28l-0.4.15A1.22,1.22,0,0,0,109.9,687.78Z" transform="translate(-68.26 -639.67)"/><path d="M122.47,677a1.22,1.22,0,0,0-.42.08l-7.54,2.78a1.22,1.22,0,0,0,.42,2.36,1.21,1.21,0,0,0,.42-0.08l7.54-2.78A1.22,1.22,0,0,0,122.47,677Z" transform="translate(-68.26 -639.67)"/><path d="M114.93,678.48a1.22,1.22,0,0,0,.42-0.08l7.54-2.78a1.22,1.22,0,0,0,.72-1.56,1.22,1.22,0,0,0-1.56-.72l-7.54,2.78a1.22,1.22,0,0,0-.72,1.56A1.22,1.22,0,0,0,114.93,678.48Z" transform="translate(-68.26 -639.67)"/><path d="M103.6,696.34a1.22,1.22,0,0,0,.84,0l22.11-8.16a1.22,1.22,0,0,0,.8-1.14V660.79a1.22,1.22,0,0,0-.8-1.14l-22.11-8.16a1.21,1.21,0,0,0-.84,0l-22.11,8.16a1.22,1.22,0,0,0-.8,1.14V687a1.22,1.22,0,0,0,.8,1.14Zm21.32-10.15-19.68,7.26V669.8l19.68-7.26v23.66ZM104,653.93l18.6,6.86L104,667.65l-2.73-1,6.82-2.52a1.22,1.22,0,0,0,0-2.28l-9.91-3.66a1.21,1.21,0,0,0-.84,0l-9.5,3.5-2.44-.9ZM91.39,663l6.39-2.36,6.39,2.36-6.39,2.36Zm5.17,4.51v9.16l-7.48-2.76v-9.16Zm-13.44-5,3.53,1.3v10.91a1.22,1.22,0,0,0,.8,1.14l9.91,3.66A1.22,1.22,0,0,0,99,678.4v-10l3.81,1.4v23.66l-19.68-7.26V662.54Z" transform="translate(-68.26 -639.67)"/></svg>