<svg id="Слой_1" data-name="Слой 1" xmlns="http://www.w3.org/2000/svg" viewBox="0 0 64.77 66.21"><defs><style>.cls-1{fill:#1d1d1b;}</style></defs><title>ico-private-5</title><path class="cls-1" d="M399.56,497.56a1.09,1.09,0,0,0,.37-0.07l11.22-4.14a1.08,1.08,0,0,0-.75-2l-11.22,4.14A1.08,1.08,0,0,0,399.56,497.56Z" transform="translate(-362 -439.83)"/><path class="cls-1" d="M396,498.87a1.08,1.08,0,0,0,.37-0.07l0.48-.18a1.08,1.08,0,1,0-.75-2l-0.48.18A1.08,1.08,0,0,0,396,498.87Z" transform="translate(-362 -439.83)"/><path class="cls-1" d="M401.91,492.29a1.08,1.08,0,0,0,.37-0.07l8.87-3.27a1.08,1.08,0,1,0-.75-2l-8.87,3.27A1.08,1.08,0,0,0,401.91,492.29Z" transform="translate(-362 -439.83)"/><path class="cls-1" d="M401.91,487.94a1.07,1.07,0,0,0,.37-0.07l8.87-3.27a1.08,1.08,0,1,0-.75-2l-8.87,3.27A1.08,1.08,0,0,0,401.91,487.94Z" transform="translate(-362 -439.83)"/><path class="cls-1" d="M415.47,463.47l-26-9.6a1.08,1.08,0,0,0-.75,0l-26,9.6h0a1.08,1.08,0,0,0-.71,1v30.88a1.08,1.08,0,0,0,.71,1l26,9.6a1.07,1.07,0,0,0,.75,0h0l26-9.6a1.08,1.08,0,0,0,.71-1V464.48A1.08,1.08,0,0,0,415.47,463.47ZM388,503.41l-23.85-8.8V466l4.86,1.79V480.9a1.08,1.08,0,0,0,.71,1l11.65,4.3a1.08,1.08,0,0,0,1.45-1V472.92l5.18,1.91v28.58Zm-7.34-31.28v11.53l-9.5-3.5V468.62Zm-7.46-5.06,8.54-3.15,8.54,3.15-8.54,3.15Zm15.88,5.87-4.23-1.56,8.92-3.29a1.08,1.08,0,0,0,0-2l-11.65-4.3a1.08,1.08,0,0,0-.75,0l-11.29,4.17-3.89-1.43L389.09,456,412,464.48ZM414,494.61l-23.85,8.8V474.83L414,466v28.57Z" transform="translate(-362 -439.83)"/><path class="cls-1" d="M393.58,439.83a33.09,33.09,0,0,0-15.91,4.06l-2.09-3.23a1.8,1.8,0,0,0-3.12.16l-4.78,9.35a1.8,1.8,0,0,0,1.7,2.62l10.49-.53a1.8,1.8,0,0,0,1.42-2.78l-2-3.06a30.2,30.2,0,0,1,40.57,41.43,1.5,1.5,0,1,0,2.61,1.48A33.2,33.2,0,0,0,393.58,439.83Z" transform="translate(-362 -439.83)"/></svg>