<svg id="Слой_1" data-name="Слой 1" xmlns="http://www.w3.org/2000/svg" viewBox="0 0 72 63"><title>login-icon</title><path d="M396.55,198.19a2.25,2.25,0,0,0,3.18,3.18l15.52-15.52a2.6,2.6,0,0,0,0-3.41l-15.52-15.52a2.25,2.25,0,0,0-3.18,3.18l11.8,11.8H359.78a2.25,2.25,0,0,0,0,4.5h48.57Zm24-45.54h-45a9,9,0,0,0-9,9v9H371v-9a4.5,4.5,0,0,1,4.5-4.5h45a4.5,4.5,0,0,1,4.5,4.5v45a4.5,4.5,0,0,1-4.5,4.5h-45a4.5,4.5,0,0,1-4.5-4.5v-9h-4.5v9a9,9,0,0,0,9,9h45a9,9,0,0,0,9-9v-45a9,9,0,0,0-9-9h0Zm0,0" transform="translate(-357.53 -152.65)"/></svg>