<svg id="Слой_1" data-name="Слой 1" xmlns="http://www.w3.org/2000/svg" viewBox="0 0 71.43 66.94"><title>shopping-cart</title><path d="M411.16,124.11l-0.5,0a7,7,0,0,1-6.46-6.17,7.07,7.07,0,0,1,.35-3.11l0.4-1.13H393.37l0.4,1.13a6.94,6.94,0,0,1,.39,2.3,7,7,0,0,1-7,7l-0.5,0a7,7,0,0,1-6.48-6.42,7.12,7.12,0,0,1,.38-2.89l0.37-1.06-1.12-.07a7.18,7.18,0,0,1-1.27-14.13l0.85-.21L373,76.72l-4.64-16.39H359a1.46,1.46,0,0,1-1.46-1.46V58.63A1.46,1.46,0,0,1,359,57.16h10.16a2.22,2.22,0,0,1,2.12,1.61l2.61,9.11,1-.59a6,6,0,0,1,3.12-.89H422.9a6.07,6.07,0,0,1,4.73,2.18,5.93,5.93,0,0,1,1.15,5.21l-6.11,24.58a5.94,5.94,0,0,1-5.77,4.51H380.26a3.6,3.6,0,0,0-3.6,3.74,3.64,3.64,0,0,0,3.68,3.46H411A7,7,0,1,1,411.16,124.11Zm0-10.45a3.44,3.44,0,1,0,3.44,3.44A3.44,3.44,0,0,0,411.18,113.66Zm-24,0a3.44,3.44,0,1,0,3.44,3.44A3.44,3.44,0,0,0,387.16,113.66Zm24.65-14.34h5.1a2.37,2.37,0,0,0,2.31-1.81l1.31-5.23H413.3Zm-9.34,0h5.7l1.48-7h-7.17v7Zm-8.83,0h5.24v-7h-6.79Zm-11.05-1.74a2.37,2.37,0,0,0,2.29,1.74h0.85v0H390l-1.55-7h-7.36ZM414,88.69h7.35l1.83-7.36H415.6Zm-11.58,0h7.94L412,81.33h-9.49v7.36Zm-11.16,0h7.58V81.33H389.7Zm-11.22,0h7.58l-1.61-7.36h-8Zm-3.28-10.92,0.85,0h7.62L383.56,70h-5.61a2.33,2.33,0,0,0-1.9,1,2.29,2.29,0,0,0-.39,2.07l1.15,4v0.73Zm25.66,0H412.7L414.35,70H402.47v7.81Zm-13.55,0h10V70H387.2Zm27.42,0h7.76l1.2-4.85a2.39,2.39,0,0,0-2.31-3h-5Z" transform="translate(-357.53 -57.16)"/></svg>