<svg id="Слой_1" data-name="Слой 1" xmlns="http://www.w3.org/2000/svg" viewBox="0 0 71.44 59.28"><defs><style>.cls-1{fill:#1d1d1b;}</style></defs><title>van</title><path class="cls-1" d="M133.86,180.63V179a4.47,4.47,0,0,0-4.47-4.47H114.51V167.1a1.49,1.49,0,0,0-1.49-1.49h-4.46v-4.46a1.49,1.49,0,0,0-1.49-1.49H86.85l-2.54-2.54a1.49,1.49,0,0,0-2.1,0l-8.5,8.49H71.35a1.49,1.49,0,0,0-1.49,1.49v41.68a1.49,1.49,0,0,0,1.49,1.49h6.2a7.33,7.33,0,0,0,14.28,0H120a7.33,7.33,0,0,0,14.29,0h5.57a1.49,1.49,0,0,0,1.49-1.49V189.43A8.94,8.94,0,0,0,133.86,180.63Zm-28.28-18v3H92.8l-3-3h15.76Zm-22.33-2.36,1.92,1.92h0l3.41,3.41H77.92ZM84.69,213A4.33,4.33,0,1,1,89,208.63,4.34,4.34,0,0,1,84.69,213Zm26.84-5.67H91.9a7.33,7.33,0,0,0-14.41,0H72.84v-38.7h38.7v38.7ZM127.11,213a4.33,4.33,0,1,1,4.33-4.33A4.34,4.34,0,0,1,127.11,213Zm11.22-5.67h-4a7.33,7.33,0,0,0-14.41,0h-5.39V177.52H129.4a1.49,1.49,0,0,1,1.49,1.49v1.49H120.47A1.49,1.49,0,0,0,119,182v13.4a1.49,1.49,0,0,0,1.49,1.49h17.86v10.42Zm-13.4-23.81V193.9h-3V183.48h3Zm13.4,10.42H127.91V183.48h4.46a6,6,0,0,1,6,6v4.47Z" transform="translate(-69.86 -156.69)"/><path class="cls-1" d="M84.11,195.64c3.08,0,6.85-1.53,6.85-5.59V179a0.64,0.64,0,0,0-.75-0.75H87.65a0.64,0.64,0,0,0-.75.75v10.5a2.79,2.79,0,0,1-5.56,0V179a0.64,0.64,0,0,0-.75-0.75H78a0.64,0.64,0,0,0-.75.75v11.07C77.28,194.12,81,195.64,84.11,195.64Z" transform="translate(-69.86 -156.69)"/><path class="cls-1" d="M95.33,195.25h2.56a0.64,0.64,0,0,0,.75-0.75v-4.29h2.48c4.42,0,6.8-2.38,6.8-6s-2.33-6-6.78-6H95.33a0.64,0.64,0,0,0-.75.75V194.5A0.64,0.64,0,0,0,95.33,195.25Zm3.31-13.37h2.48c2,0,2.9,1.09,2.9,2.43s-0.88,2.41-2.9,2.41H98.64v-4.84Z" transform="translate(-69.86 -156.69)"/></svg>