<!DOCTYPE svg PUBLIC "-//W3C//DTD SVG 1.1//EN" "http://www.w3.org/Graphics/SVG/1.1/DTD/svg11.dtd"><svg xmlns="http://www.w3.org/2000/svg" xmlns:xlink="http://www.w3.org/1999/xlink"><symbol viewBox="0 0 21.9 21.9" enable-background="new 0 0 21.9 21.9" id="cancel">
  <path d="M14.1,11.3c-0.2-0.2-0.2-0.5,0-0.7l7.5-7.5c0.2-0.2,0.3-0.5,0.3-0.7s-0.1-0.5-0.3-0.7l-1.4-1.4C20,0.1,19.7,0,19.5,0  c-0.3,0-0.5,0.1-0.7,0.3l-7.5,7.5c-0.2,0.2-0.5,0.2-0.7,0L3.1,0.3C2.9,0.1,2.6,0,2.4,0S1.9,0.1,1.7,0.3L0.3,1.7C0.1,1.9,0,2.2,0,2.4  s0.1,0.5,0.3,0.7l7.5,7.5c0.2,0.2,0.2,0.5,0,0.7l-7.5,7.5C0.1,19,0,19.3,0,19.5s0.1,0.5,0.3,0.7l1.4,1.4c0.2,0.2,0.5,0.3,0.7,0.3  s0.5-0.1,0.7-0.3l7.5-7.5c0.2-0.2,0.5-0.2,0.7,0l7.5,7.5c0.2,0.2,0.5,0.3,0.7,0.3s0.5-0.1,0.7-0.3l1.4-1.4c0.2-0.2,0.3-0.5,0.3-0.7  s-0.1-0.5-0.3-0.7L14.1,11.3z" fill="#FFFFFF"/>
</symbol><symbol viewBox="0 0 129 129" enable-background="new 0 0 129 129" id="credit-card">
  <g>
    <g>
      <path d="m30.7,75.1h13.5c2.3,0 4.1-1.8 4.1-4.1s-1.8-4-4.1-4h-13.5c-2.3,0-4.1,1.8-4.1,4.1s1.9,4 4.1,4z"/>
      <path d="m118.5,24h-107.9c-2.3,0-4.1,1.8-4.1,4.1v25.5c-0.1,0.3-0.1,0.6-0.1,0.9s0,0.6 0.1,0.9v45.4c0,2.3 1.8,4.1 4.1,4.1h107.9c2.3,0 4.1-1.8 4.1-4.1v-72.7c0-2.2-1.8-4.1-4.1-4.1zm-4.1,72.8h-99.7v-38.2h99.7v38.2zm0-46.3h-99.7v-18.3h99.7v18.3z"/>
    </g>
  </g>
</symbol><symbol id="handshake" viewBox="0 0 488.318 488.318" style="enable-background:new 0 0 488.318 488.318;" xml:space="preserve">
<g>
	<g>
		<path d="M329.136,147.265l-123.5-42.6c-11.7-4-24.8-3.2-36,2.2l-6.2,3c-8.4,4.1-18.3,4.7-27.1,1.5l-10.6-3.8    c-0.5-0.3-1-0.6-1.5-0.8l-63.2-21.5c-1.5-0.5-3.2-0.4-4.6,0.3c-1.4,0.7-2.5,1.9-3,3.4l-53.1,154.9c-1.1,3.1,0.6,6.5,3.7,7.6    l63.3,21.7c0.7,0.3,1.3,0.4,2,0.4c0.9,0,1.8-0.2,2.6-0.6c1.4-0.7,2.5-1.9,3-3.4l51.1-149l6.4,2.3c11.8,4.2,25.1,3.4,36.4-2.1    l6.2-3c8.3-4.1,18.1-4.7,26.8-1.7l118.9,41c-0.9,5.2-3.4,13.8-9.9,18.3c-5.8,4-14.2,4.2-24.8,0.5l-51.9-17.7    c-1.6-0.5-3.3-0.4-4.8,0.4s-2.5,2.2-3,3.8c-0.1,0.3-7.8,28.7-31.8,41.5c-15.2,8.2-34,8.5-55.9,1c-3.1-1.1-6.5,0.6-7.6,3.7    c-1.1,3.1,0.6,6.5,3.7,7.6c11.7,4,22.8,6,33.1,6c11.8,0,22.6-2.6,32.4-7.9c21.4-11.5,31.7-32.5,35.6-42.9l46.1,15.8    c14.5,5,26.4,4.3,35.6-2c14.8-10.2,15.5-31.2,15.6-32.1C333.236,150.465,331.536,148.065,329.136,147.265z M65.636,259.865    l-52-17.8l49.2-143.5l50.6,17.3c0.4,0.2,0.8,0.4,1.2,0.6l0.2,0.1L65.636,259.865z" fill="#FFFFFF"/>
	</g>
</g>
<g>
	<g>
		<path d="M487.736,235.965l-72.2-146.7c-0.7-1.4-1.9-2.5-3.4-3s-3.2-0.4-4.6,0.3l-60.1,29.4c-3,1.5-4.2,5-2.8,8l70,143l-23.5,21.5    c-19.9,18.3-42.4,33.6-66.7,45.5l-115.1,56.3c-3.2,1.6-6.8,1.8-10.2,0.6c-3.4-1.2-6.1-3.6-7.7-6.8c-1.6-3.2-1.8-6.8-0.6-10.2    c1.2-3.4,3.6-6.1,6.8-7.7l64.3-31.5c3-1.5,4.2-5,2.8-8c-1.5-3-5.1-4.2-8-2.8l-62.9,30.8l-31.7,15.5c-6.6,3.2-14.7,0.5-17.9-6.1    c-3.2-6.6-0.5-14.6,6.1-17.9l92.4-45.2c3-1.5,4.2-5,2.8-8c-1.5-3-5.1-4.2-8-2.8l-68.4,33.5l-24,11.7l-11.3,5.5    c-6.6,3.2-14.7,0.5-17.9-6.1c-3.2-6.6-0.5-14.7,6.1-17.9l11.4-5.6l82.7-40.5c3-1.5,4.2-5,2.8-8c-1.5-3-5.1-4.2-8-2.8l-53.1,26    l-29.6,14.5c-3.2,1.6-6.8,1.8-10.2,0.6c-3.4-1.2-6.1-3.6-7.7-6.8c-1.6-3.2-1.8-6.8-0.6-10.2s3.6-6.1,6.8-7.7l43.9-21.5    c3-1.5,4.2-5,2.8-8c-1.5-3-5.1-4.2-8-2.8l-43.9,21.5c-6.1,3-10.7,8.2-12.9,14.6c-2.2,6.4-1.8,13.3,1.2,19.4    c2.3,4.8,6.1,8.6,10.7,11.1c-7.6,7.5-9.9,19.2-5,29.2c4.4,9,13.4,14.2,22.8,14.2c1.1,0,2.2-0.1,3.3-0.2c-0.8,5-0.2,10.3,2.2,15.3    c4.4,9,13.4,14.2,22.8,14.2c3.7,0,7.5-0.8,11.1-2.6l10.9-5.4c-0.5,4.7,0.3,9.4,2.5,13.7c3,6.1,8.2,10.7,14.6,12.9    c2.7,0.9,5.5,1.4,8.3,1.4c3.8,0,7.6-0.9,11.1-2.6l115.1-56.3c25.4-12.4,48.7-28.4,69.5-47.5l26.1-24l59.3-29    C487.936,242.465,489.136,238.965,487.736,235.965z M424.736,260.365l-66.7-136.3l49.4-24.1l66.6,136.3L424.736,260.365z" fill="#FFFFFF"/>
	</g>
</g>
<g>
</g>
<g>
</g>
<g>
</g>
<g>
</g>
<g>
</g>
<g>
</g>
<g>
</g>
<g>
</g>
<g>
</g>
<g>
</g>
<g>
</g>
<g>
</g>
<g>
</g>
<g>
</g>
<g>
</g>
</symbol><symbol id="heart" viewBox="0 0 369.486 369.486" style="enable-background:new 0 0 369.486 369.486;" xml:space="preserve">
<g>
	<g>
		<path d="M184.743,357.351c-3.478,0-6.798-1.449-9.164-3.998l-147.67-159.16c-0.038-0.041-0.076-0.082-0.113-0.123    C9.871,174.223,0,147.921,0,120.008c0-27.914,9.871-54.215,27.796-74.061l2.244-2.484c18.246-20.201,42.608-31.327,68.599-31.327    s50.354,11.126,68.601,31.328l17.503,19.38l17.503-19.379c18.246-20.202,42.608-31.328,68.6-31.328s50.354,11.126,68.601,31.329    l2.241,2.478c17.928,19.851,27.799,46.152,27.799,74.065s-9.872,54.215-27.796,74.061c-0.037,0.043-0.075,0.084-0.113,0.125    l-147.671,159.16C191.541,355.901,188.221,357.351,184.743,357.351z M46.295,177.252l138.448,149.219l138.448-149.22    c28.485-31.603,28.467-82.97-0.055-114.549l-2.239-2.478c-13.449-14.891-31.224-23.09-50.051-23.09    c-18.828,0-36.603,8.199-50.048,23.085L194.02,89.869c-2.369,2.624-5.74,4.121-9.275,4.121s-6.906-1.497-9.276-4.121    l-26.779-29.648c-13.446-14.887-31.22-23.086-50.048-23.086S62.039,45.333,48.594,60.22l-2.244,2.484    C17.828,94.283,17.809,145.65,46.295,177.252z" fill="#FFFFFF"/>
	</g>
</g>
<g>
</g>
<g>
</g>
<g>
</g>
<g>
</g>
<g>
</g>
<g>
</g>
<g>
</g>
<g>
</g>
<g>
</g>
<g>
</g>
<g>
</g>
<g>
</g>
<g>
</g>
<g>
</g>
<g>
</g>
</symbol><symbol viewBox="0 0 15 28" id="left">
    <g>
        <g id="eetalon" transform="translate(-838.000000, -2513.000000)">
            <g id="earrow" transform="translate(735.000000, 2513.000000)">
                <g id="ehover" transform="translate(103.000000, 0.000000)">
                    <path d="M1.36363636,-1.13686838e-13 L15,14 L13.6363636,15.4 L0,1.4 L1.36363636,-1.13686838e-13 Z M12.2727273,14 L13.6363636,15.4 L1.36363636,28 L0,26.6 L12.2727273,14 Z" id="eleft" transform="translate(7.500000, 14.000000) scale(-1, 1) translate(-7.500000, -14.000000) "/>
                </g>
            </g>
        </g>
    </g>
</symbol><symbol id="magnifying-glass" viewBox="0 0 451 451" style="enable-background:new 0 0 451 451;" xml:space="preserve">
<g>
	<path d="M447.05,428l-109.6-109.6c29.4-33.8,47.2-77.9,47.2-126.1C384.65,86.2,298.35,0,192.35,0C86.25,0,0.05,86.3,0.05,192.3   s86.3,192.3,192.3,192.3c48.2,0,92.3-17.8,126.1-47.2L428.05,447c2.6,2.6,6.1,4,9.5,4s6.9-1.3,9.5-4   C452.25,441.8,452.25,433.2,447.05,428z M26.95,192.3c0-91.2,74.2-165.3,165.3-165.3c91.2,0,165.3,74.2,165.3,165.3   s-74.1,165.4-165.3,165.4C101.15,357.7,26.95,283.5,26.95,192.3z" fill="#FFFFFF"/>
</g>
<g>
</g>
<g>
</g>
<g>
</g>
<g>
</g>
<g>
</g>
<g>
</g>
<g>
</g>
<g>
</g>
<g>
</g>
<g>
</g>
<g>
</g>
<g>
</g>
<g>
</g>
<g>
</g>
<g>
</g>
</symbol><symbol id="musica-searcher" viewBox="0 0 250.313 250.313" style="enable-background:new 0 0 250.313 250.313;" xml:space="preserve">
<g id="gSearch">
	<path style="fill-rule:evenodd;clip-rule:evenodd;" d="M244.186,214.604l-54.379-54.378c-0.289-0.289-0.628-0.491-0.93-0.76   c10.7-16.231,16.945-35.66,16.945-56.554C205.822,46.075,159.747,0,102.911,0S0,46.075,0,102.911   c0,56.835,46.074,102.911,102.91,102.911c20.895,0,40.323-6.245,56.554-16.945c0.269,0.301,0.47,0.64,0.759,0.929l54.38,54.38   c8.169,8.168,21.413,8.168,29.583,0C252.354,236.017,252.354,222.773,244.186,214.604z M102.911,170.146   c-37.134,0-67.236-30.102-67.236-67.235c0-37.134,30.103-67.236,67.236-67.236c37.132,0,67.235,30.103,67.235,67.236   C170.146,140.044,140.043,170.146,102.911,170.146z" fill="#FFFFFF"/>
</g>
<g>
</g>
<g>
</g>
<g>
</g>
<g>
</g>
<g>
</g>
<g>
</g>
<g>
</g>
<g>
</g>
<g>
</g>
<g>
</g>
<g>
</g>
<g>
</g>
<g>
</g>
<g>
</g>
<g>
</g>
</symbol><symbol id="placeholder" viewBox="0 0 60 60" style="enable-background:new 0 0 60 60;" xml:space="preserve">
<g>
	<path d="M30,26c3.86,0,7-3.141,7-7s-3.14-7-7-7s-7,3.141-7,7S26.14,26,30,26z M30,14c2.757,0,5,2.243,5,5s-2.243,5-5,5   s-5-2.243-5-5S27.243,14,30,14z" fill="#FFFFFF"/>
	<path d="M29.823,54.757L45.164,32.6c5.754-7.671,4.922-20.28-1.781-26.982C39.761,1.995,34.945,0,29.823,0   s-9.938,1.995-13.56,5.617c-6.703,6.702-7.535,19.311-1.804,26.952L29.823,54.757z M17.677,7.031C20.922,3.787,25.235,2,29.823,2   s8.901,1.787,12.146,5.031c6.05,6.049,6.795,17.437,1.573,24.399L29.823,51.243L16.082,31.4   C10.882,24.468,11.628,13.08,17.677,7.031z" fill="#FFFFFF"/>
	<path d="M42.117,43.007c-0.55-0.067-1.046,0.327-1.11,0.876s0.328,1.046,0.876,1.11C52.399,46.231,58,49.567,58,51.5   c0,2.714-10.652,6.5-28,6.5S2,54.214,2,51.5c0-1.933,5.601-5.269,16.117-6.507c0.548-0.064,0.94-0.562,0.876-1.11   c-0.065-0.549-0.561-0.945-1.11-0.876C7.354,44.247,0,47.739,0,51.5C0,55.724,10.305,60,30,60s30-4.276,30-8.5   C60,47.739,52.646,44.247,42.117,43.007z" fill="#FFFFFF"/>
</g>
<g>
</g>
<g>
</g>
<g>
</g>
<g>
</g>
<g>
</g>
<g>
</g>
<g>
</g>
<g>
</g>
<g>
</g>
<g>
</g>
<g>
</g>
<g>
</g>
<g>
</g>
<g>
</g>
<g>
</g>
</symbol><symbol viewBox="0 0 15 28" id="right">
    <g>
        <g id="ietalon" transform="translate(-888.000000, -2513.000000)">
            <g id="iarrow" transform="translate(735.000000, 2513.000000)">
                <g id="ihover" transform="translate(103.000000, 0.000000)">
                    <path d="M51.3636364,-1.13686838e-13 L65,14 L63.6363636,15.4 L50,1.4 L51.3636364,-1.13686838e-13 Z M62.2727273,14 L63.6363636,15.4 L51.3636364,28 L50,26.6 L62.2727273,14 Z" id="iright"/>
                </g>
            </g>
        </g>
    </g>
</symbol><symbol id="search" viewBox="0 0 56.966 56.966" style="enable-background:new 0 0 56.966 56.966;" xml:space="preserve">
<path d="M55.146,51.887L41.588,37.786c3.486-4.144,5.396-9.358,5.396-14.786c0-12.682-10.318-23-23-23s-23,10.318-23,23  s10.318,23,23,23c4.761,0,9.298-1.436,13.177-4.162l13.661,14.208c0.571,0.593,1.339,0.92,2.162,0.92  c0.779,0,1.518-0.297,2.079-0.837C56.255,54.982,56.293,53.08,55.146,51.887z M23.984,6c9.374,0,17,7.626,17,17s-7.626,17-17,17  s-17-7.626-17-17S14.61,6,23.984,6z" fill="#FFFFFF"/>
<g>
</g>
<g>
</g>
<g>
</g>
<g>
</g>
<g>
</g>
<g>
</g>
<g>
</g>
<g>
</g>
<g>
</g>
<g>
</g>
<g>
</g>
<g>
</g>
<g>
</g>
<g>
</g>
<g>
</g>
</symbol><symbol id="shopping-cart" viewBox="0 0 475.084 475.085" style="enable-background:new 0 0 475.084 475.085;" xml:space="preserve">
<g>
	<g>
		<path d="M365.446,401.998c0,10.092,3.579,18.702,10.711,25.834c7.132,7.139,15.749,10.711,25.845,10.711
			c10.081,0,18.698-3.572,25.83-10.711c7.139-7.132,10.711-15.742,10.711-25.834s-3.568-18.702-10.711-25.841
			c-7.132-7.132-15.749-10.704-25.83-10.704c-10.096,0-18.713,3.572-25.845,10.704C369.025,383.296,365.446,391.906,365.446,401.998
			z"/>
		<path d="M469.658,78.51c-3.618-3.617-7.898-5.426-12.848-5.426H113.918c-0.193-1.331-0.621-3.756-1.287-7.277
			c-0.666-3.523-1.188-6.329-1.569-8.425c-0.383-2.087-1.093-4.611-2.142-7.561c-1.047-2.952-2.284-5.286-3.711-6.995
			c-1.425-1.718-3.328-3.189-5.708-4.43c-2.378-1.233-5.092-1.853-8.136-1.853H18.276c-4.952,0-9.234,1.812-12.85,5.424
			C1.809,45.583,0,49.868,0,54.816s1.809,9.231,5.426,12.847c3.619,3.617,7.902,5.424,12.85,5.424h58.237l50.532,234.976
			c-0.378,0.76-2.329,4.373-5.852,10.848c-3.521,6.475-6.328,12.135-8.42,16.988c-2.093,4.859-3.14,8.616-3.14,11.279
			c0,4.948,1.809,9.232,5.424,12.854c3.621,3.606,7.902,5.421,12.851,5.421h18.272h255.815h18.261c4.948,0,9.232-1.814,12.847-5.421
			c3.62-3.621,5.427-7.905,5.427-12.854c0-4.949-1.807-9.233-5.427-12.847c-3.614-3.614-7.898-5.428-12.847-5.428h-262.66
			c4.57-9.138,6.854-15.222,6.854-18.268c0-1.909-0.238-4.004-0.715-6.283s-1.047-4.805-1.713-7.569
			c-0.667-2.752-1.093-4.799-1.283-6.133l298.077-34.831c4.753-0.575,8.658-2.614,11.703-6.14c3.046-3.518,4.565-7.562,4.565-12.133
			V91.363C475.082,86.415,473.278,82.132,469.658,78.51z"/>
		<path d="M109.632,401.998c0,10.092,3.567,18.702,10.706,25.834c7.141,7.139,15.75,10.711,25.841,10.711
			c10.085,0,18.699-3.572,25.835-10.711c7.139-7.132,10.71-15.742,10.71-25.834s-3.568-18.702-10.71-25.841
			c-7.137-7.132-15.75-10.704-25.835-10.704c-10.09,0-18.704,3.572-25.841,10.704C113.203,383.296,109.632,391.906,109.632,401.998z
			"/>
	</g>
</g>
<g>
</g>
<g>
</g>
<g>
</g>
<g>
</g>
<g>
</g>
<g>
</g>
<g>
</g>
<g>
</g>
<g>
</g>
<g>
</g>
<g>
</g>
<g>
</g>
<g>
</g>
<g>
</g>
<g>
</g>
</symbol><symbol id="van" viewBox="0 0 31.224 31.224" style="enable-background:new 0 0 31.224 31.224;" xml:space="preserve">
<g>
	<g>
		<path d="M21.427,21.712h-11.38c-0.276,0-0.5-0.224-0.5-0.5s0.224-0.5,0.5-0.5h11.38c0.276,0,0.5,0.224,0.5,0.5    S21.703,21.712,21.427,21.712z"/>
		<path d="M7.339,24.42c-1.77,0-3.209-1.439-3.209-3.208c0-1.77,1.439-3.209,3.209-3.209c1.769,0,3.208,1.439,3.208,3.209    C10.547,22.98,9.107,24.42,7.339,24.42z M7.339,19.003c-1.218,0-2.209,0.991-2.209,2.209s0.991,2.208,2.209,2.208    s2.208-0.99,2.208-2.208S8.557,19.003,7.339,19.003z"/>
		<path d="M24.135,24.42c-1.769,0-3.208-1.439-3.208-3.208c0-1.77,1.439-3.209,3.208-3.209c1.77,0,3.209,1.439,3.209,3.209    C27.344,22.98,25.904,24.42,24.135,24.42z M24.135,19.003c-1.218,0-2.208,0.991-2.208,2.209s0.99,2.208,2.208,2.208    s2.209-0.99,2.209-2.208S25.353,19.003,24.135,19.003z"/>
	</g>
	<path d="M21.431,21.712H10.048c-0.276,0-0.5-0.224-0.5-0.5s0.224-0.5,0.5-0.5h11.383c0.276,0,0.5,0.224,0.5,0.5   S21.707,21.712,21.431,21.712z"/>
	<path d="M28.833,21.712h-1.992c-0.276,0-0.5-0.224-0.5-0.5s0.224-0.5,0.5-0.5h1.992c0.767,0,1.391-0.624,1.391-1.391v-1.931   c0-0.712-0.29-1.408-0.796-1.911l-2.243-2.229c-0.042-0.042-0.076-0.091-0.102-0.145l-1.839-3.98   c-0.371-0.803-1.182-1.321-2.065-1.321H2.584C1.711,7.804,1,8.515,1,9.388v9.934c0,0.767,0.623,1.391,1.39,1.391h2.236   c0.276,0,0.5,0.224,0.5,0.5s-0.224,0.5-0.5,0.5H2.39C1.072,21.712,0,20.64,0,19.321V9.388c0-1.425,1.159-2.584,2.584-2.584h20.595   c1.272,0,2.439,0.746,2.974,1.901l1.801,3.899l2.18,2.166c0.693,0.688,1.091,1.644,1.091,2.62v1.931   C31.224,20.64,30.151,21.712,28.833,21.712z"/>
	<path d="M21.498,14.838H7.095c-0.276,0-0.5-0.224-0.5-0.5s0.224-0.5,0.5-0.5h14.403c0.276,0,0.5,0.224,0.5,0.5   S21.774,14.838,21.498,14.838z"/>
</g>
<g>
</g>
<g>
</g>
<g>
</g>
<g>
</g>
<g>
</g>
<g>
</g>
<g>
</g>
<g>
</g>
<g>
</g>
<g>
</g>
<g>
</g>
<g>
</g>
<g>
</g>
<g>
</g>
<g>
</g>
</symbol></svg>