<!DOCTYPE svg PUBLIC "-//W3C//DTD SVG 1.1//EN" "http://www.w3.org/Graphics/SVG/1.1/DTD/svg11.dtd"><svg xmlns="http://www.w3.org/2000/svg" xmlns:xlink="http://www.w3.org/1999/xlink"><symbol id="callback" viewBox="0 0 64.99 65.09" xmlns="http://www.w3.org/2000/svg"><title>callback</title><path d="M412.35,287.75a6.4,6.4,0,0,0-4.64-2.13,6.62,6.62,0,0,0-4.7,2.12l-4.34,4.33-1.06-.55c-0.49-.25-1-0.48-1.36-0.73a47.17,47.17,0,0,1-11.31-10.3,27.83,27.83,0,0,1-3.71-5.85c1.13-1,2.17-2.1,3.19-3.13l1.15-1.17a6.3,6.3,0,0,0,0-9.51l-3.75-3.75c-0.43-.43-0.87-0.87-1.28-1.3-0.82-.85-1.69-1.73-2.58-2.56a6.5,6.5,0,0,0-4.6-2,6.73,6.73,0,0,0-4.67,2l0,0L364,258a10.05,10.05,0,0,0-3,6.39,24.08,24.08,0,0,0,1.76,10.19,59.15,59.15,0,0,0,10.51,17.53,64.64,64.64,0,0,0,21.53,16.86,33.53,33.53,0,0,0,12.09,3.57l0.87,0a10.35,10.35,0,0,0,7.93-3.41s0,0,.06-0.07a31.08,31.08,0,0,1,2.4-2.49c0.59-.56,1.19-1.15,1.79-1.77A6.85,6.85,0,0,0,422,300a6.6,6.6,0,0,0-2.12-4.71Zm4.92,14.46s0,0,0,0c-0.54.58-1.09,1.1-1.68,1.68a36.08,36.08,0,0,0-2.65,2.75,6.62,6.62,0,0,1-5.17,2.18h-0.63a29.79,29.79,0,0,1-10.71-3.21,61,61,0,0,1-20.28-15.88,55.78,55.78,0,0,1-9.89-16.47,19.62,19.62,0,0,1-1.54-8.6,6.31,6.31,0,0,1,1.9-4.08l4.68-4.68a3.12,3.12,0,0,1,2.09-1,2.94,2.94,0,0,1,2,1l0,0c0.84,0.78,1.63,1.59,2.47,2.46l1.31,1.33,3.75,3.75c1.46,1.46,1.46,2.8,0,4.26-0.4.4-.78,0.8-1.18,1.18-1.15,1.18-2.25,2.28-3.45,3.35a0.34,0.34,0,0,0-.07.07,2.8,2.8,0,0,0-.71,3.12l0,0.12a30.09,30.09,0,0,0,4.44,7.24h0a50.42,50.42,0,0,0,12.2,11.1,18.69,18.69,0,0,0,1.69.92c0.49,0.25,1,.48,1.36.73l0.16,0.1a3,3,0,0,0,1.36.34,2.94,2.94,0,0,0,2.09-.95l4.7-4.7a3.11,3.11,0,0,1,2.07-1,2.8,2.8,0,0,1,2,1l7.6,7.6c1.42,1.4,1.42,2.84,0,4.3h0Zm0,0" transform="translate(-360.96 -247.43)"/><path d="M396.09,262.92a17.68,17.68,0,0,1,14.4,14.4,1.84,1.84,0,0,0,1.83,1.54l0.32,0a1.86,1.86,0,0,0,1.52-2.14,21.38,21.38,0,0,0-17.42-17.42,1.86,1.86,0,0,0-2.14,1.51,1.83,1.83,0,0,0,1.5,2.14h0Zm0,0" transform="translate(-360.96 -247.43)"/><path d="M425.92,276.15a35.2,35.2,0,0,0-28.68-28.68,1.85,1.85,0,1,0-.6,3.65,31.44,31.44,0,0,1,25.63,25.63,1.84,1.84,0,0,0,1.83,1.54l0.32,0a1.82,1.82,0,0,0,1.51-2.12h0Zm0,0" transform="translate(-360.96 -247.43)"/></symbol><symbol viewBox="0 0 21.9 21.9" enable-background="new 0 0 21.9 21.9" id="cancel" xmlns="http://www.w3.org/2000/svg">
  <path d="M14.1,11.3c-0.2-0.2-0.2-0.5,0-0.7l7.5-7.5c0.2-0.2,0.3-0.5,0.3-0.7s-0.1-0.5-0.3-0.7l-1.4-1.4C20,0.1,19.7,0,19.5,0  c-0.3,0-0.5,0.1-0.7,0.3l-7.5,7.5c-0.2,0.2-0.5,0.2-0.7,0L3.1,0.3C2.9,0.1,2.6,0,2.4,0S1.9,0.1,1.7,0.3L0.3,1.7C0.1,1.9,0,2.2,0,2.4  s0.1,0.5,0.3,0.7l7.5,7.5c0.2,0.2,0.2,0.5,0,0.7l-7.5,7.5C0.1,19,0,19.3,0,19.5s0.1,0.5,0.3,0.7l1.4,1.4c0.2,0.2,0.5,0.3,0.7,0.3  s0.5-0.1,0.7-0.3l7.5-7.5c0.2-0.2,0.5-0.2,0.7,0l7.5,7.5c0.2,0.2,0.5,0.3,0.7,0.3s0.5-0.1,0.7-0.3l1.4-1.4c0.2-0.2,0.3-0.5,0.3-0.7  s-0.1-0.5-0.3-0.7L14.1,11.3z" fill="#FFFFFF"/>
</symbol><symbol id="credit-card" viewBox="0 0 71.44 52.05" xmlns="http://www.w3.org/2000/svg"><title>credit-card</title><path d="M133.44,64.61H93.5a7.88,7.88,0,0,0-7.87,7.87v2a1.53,1.53,0,1,0,3.05,0v-2a4.82,4.82,0,0,1,4.81-4.81h39.93a4.82,4.82,0,0,1,4.81,4.81V78.2H77.73a7.88,7.88,0,0,0-7.87,7.87v22.73a7.88,7.88,0,0,0,7.87,7.87h39.93a7.88,7.88,0,0,0,7.87-7.87V90.71h12.72v4.5a4.82,4.82,0,0,1-4.81,4.81h-4.3a1.53,1.53,0,1,0,0,3.05h4.3a7.88,7.88,0,0,0,7.87-7.87V72.48a7.88,7.88,0,0,0-7.87-7.87h0Zm-4,23h-3.39a1.55,1.55,0,0,0,.4-0.29l6.12-6.12h3.22l-6.14,6.14a1.52,1.52,0,0,0-.21.26h0Zm-4.17-3.42a7.83,7.83,0,0,0-1.43-3h4.42Zm-2.84,24.56a4.82,4.82,0,0,1-4.81,4.81H77.73a4.82,4.82,0,0,1-4.81-4.81V86.06a4.82,4.82,0,0,1,4.81-4.81h39.93a4.82,4.82,0,0,1,4.81,4.81v22.73Zm11.27-21.14,4-4v4h-4Zm0,0" transform="translate(-69.86 -64.61)"/><path d="M90.28,100.91a1.53,1.53,0,0,0-1.53,1.53v4.77H79.31V99.75h6.53a1.53,1.53,0,1,0,0-3.05H77.78a1.53,1.53,0,0,0-1.53,1.53v10.51a1.53,1.53,0,0,0,1.53,1.53h12.5a1.53,1.53,0,0,0,1.53-1.53v-6.3a1.53,1.53,0,0,0-1.53-1.53h0Zm0,0" transform="translate(-69.86 -64.61)"/><path d="M117.06,100H99.21a1.53,1.53,0,1,0,0,3.05h17.85a1.53,1.53,0,1,0,0-3.05h0Zm0,0" transform="translate(-69.86 -64.61)"/><path d="M117.06,107.21H99.21a1.53,1.53,0,1,0,0,3.05h17.85a1.53,1.53,0,1,0,0-3.05h0Zm0,0" transform="translate(-69.86 -64.61)"/></symbol><symbol id="handshake" viewBox="0 0 71.41 61.92" xmlns="http://www.w3.org/2000/svg"><title>handshake</title><path d="M139.82,268.24L125.29,253.7a4.87,4.87,0,0,0-6.89,0L115,257.12a4.84,4.84,0,0,0-1.14,1.8l-16-2.86h0a13.34,13.34,0,0,0-15.65,10.43l-0.74,3.66a7.47,7.47,0,1,0,14.65,3l0.45-2.24,7.17,0.63,22.11,22.11a1.76,1.76,0,1,1-2.49,2.49L114.27,287A1.62,1.62,0,0,0,112,289.3l9.09,9.09a1.76,1.76,0,1,1-2.49,2.49l-9.09-9.09a1.62,1.62,0,1,0-2.29,2.29l9.09,9.09a1.76,1.76,0,0,1-2.49,2.49l-9.09-9.09a1.62,1.62,0,0,0-2.29,2.29l9.09,9.09a1.76,1.76,0,1,1-2.49,2.49L76.85,278.29,72.61,274a1.62,1.62,0,0,0-2.29,2.29l4.25,4.25,4.62,4.62-2.55,2.55a4.42,4.42,0,0,0,0,6.24l0.83,0.83a4.39,4.39,0,0,0,2.68,1.27,4.38,4.38,0,0,0,1.27,2.68l0.83,0.83a4.39,4.39,0,0,0,2.68,1.27,4.38,4.38,0,0,0,1.27,2.68L87,304.39a4.38,4.38,0,0,0,2.68,1.27A4.39,4.39,0,0,0,91,308.35l0.83,0.83a4.42,4.42,0,0,0,6.24,0l2.55-2.55,6.1,6.1a5,5,0,0,0,8.53-3.33,5,5,0,0,0,4.78-4.79,5,5,0,0,0,4.78-4.78,5,5,0,0,0,3.33-8.53l-2.25-2.25,13.93-13.93a4.88,4.88,0,0,0,0-6.89h0ZM78.93,291.7a1.18,1.18,0,0,1,0-1.66l2.39-2.39,2.49,2.49-2.39,2.39a1.18,1.18,0,0,1-1.66,0Zm4.78,4.78a1.17,1.17,0,0,1,0-1.66l2.39-2.39,2.49,2.49-2.39,2.39a1.18,1.18,0,0,1-1.66,0Zm4.78,4.78a1.17,1.17,0,0,1,0-1.66l2.39-2.39,2.49,2.49L91,302.1a1.18,1.18,0,0,1-1.66,0Zm7.28,5.62a1.18,1.18,0,0,1-1.66,0l-0.83-.83a1.17,1.17,0,0,1,0-1.66L95.67,302l2.49,2.49Zm27.83-20.12-18-18a1.62,1.62,0,0,0-1-.47l-9.2-.8H95.26a1.62,1.62,0,0,0-1.59,1.3l-0.74,3.66a4.23,4.23,0,0,1-8.29-1.67l0.74-3.66a10.09,10.09,0,0,1,11.87-7.89h0L113,262.07l17.63,17.63Zm13.93-13.93L133,277.4l-15.69-15.69a1.63,1.63,0,0,1,0-2.31l3.42-3.42a1.63,1.63,0,0,1,2.31,0l14.54,14.54a1.63,1.63,0,0,1,0,2.31h0Zm0,0" transform="translate(-69.84 -252.27)"/></symbol><symbol id="heart" viewBox="0 0 369.486 369.486" style="enable-background:new 0 0 369.486 369.486;" xml:space="preserve" xmlns="http://www.w3.org/2000/svg">
<g>
	<g>
		<path d="M184.743,357.351c-3.478,0-6.798-1.449-9.164-3.998l-147.67-159.16c-0.038-0.041-0.076-0.082-0.113-0.123    C9.871,174.223,0,147.921,0,120.008c0-27.914,9.871-54.215,27.796-74.061l2.244-2.484c18.246-20.201,42.608-31.327,68.599-31.327    s50.354,11.126,68.601,31.328l17.503,19.38l17.503-19.379c18.246-20.202,42.608-31.328,68.6-31.328s50.354,11.126,68.601,31.329    l2.241,2.478c17.928,19.851,27.799,46.152,27.799,74.065s-9.872,54.215-27.796,74.061c-0.037,0.043-0.075,0.084-0.113,0.125    l-147.671,159.16C191.541,355.901,188.221,357.351,184.743,357.351z M46.295,177.252l138.448,149.219l138.448-149.22    c28.485-31.603,28.467-82.97-0.055-114.549l-2.239-2.478c-13.449-14.891-31.224-23.09-50.051-23.09    c-18.828,0-36.603,8.199-50.048,23.085L194.02,89.869c-2.369,2.624-5.74,4.121-9.275,4.121s-6.906-1.497-9.276-4.121    l-26.779-29.648c-13.446-14.887-31.22-23.086-50.048-23.086S62.039,45.333,48.594,60.22l-2.244,2.484    C17.828,94.283,17.809,145.65,46.295,177.252z" fill="#FFFFFF"/>
	</g>
</g>
<g>
</g>
<g>
</g>
<g>
</g>
<g>
</g>
<g>
</g>
<g>
</g>
<g>
</g>
<g>
</g>
<g>
</g>
<g>
</g>
<g>
</g>
<g>
</g>
<g>
</g>
<g>
</g>
<g>
</g>
</symbol><symbol id="ico-private-1" viewBox="0 0 51.04 70.54" xmlns="http://www.w3.org/2000/svg"><title>ico-private-1</title><path d="M127.54,348h-8.8a3.59,3.59,0,0,0-3.39-2.44h-3.72a6,6,0,0,0-9.62,0H98.29A3.59,3.59,0,0,0,94.89,348H86.1a4.8,4.8,0,0,0-4.8,4.8v56.07a4.8,4.8,0,0,0,4.8,4.8h41.44a4.8,4.8,0,0,0,4.8-4.8V352.78a4.8,4.8,0,0,0-4.8-4.8h0Zm-32.65,7.16a3.59,3.59,0,0,0,3.39,2.44h17.06a3.59,3.59,0,0,0,3.39-2.44h6.43v51.34H88.46V355.14h6.43Zm3.39-7.31h4.33a1.14,1.14,0,0,0,1-.57,3.69,3.69,0,0,1,6.42,0,1.14,1.14,0,0,0,1,.57h4.33a1.3,1.3,0,0,1,1.29,1.29V354h0a1.3,1.3,0,0,1-1.29,1.29H98.29A1.3,1.3,0,0,1,97,354h0v-4.87a1.3,1.3,0,0,1,1.3-1.29h0Zm31.77,61a2.52,2.52,0,0,1-2.51,2.51H86.1a2.52,2.52,0,0,1-2.51-2.51V352.78a2.52,2.52,0,0,1,2.51-2.51h8.61v2.59H87.32A1.14,1.14,0,0,0,86.17,354v53.63a1.14,1.14,0,0,0,1.14,1.14h39a1.14,1.14,0,0,0,1.14-1.14V354a1.14,1.14,0,0,0-1.14-1.14h-7.39v-2.59h8.61a2.52,2.52,0,0,1,2.51,2.51v56.07Zm0,0" transform="translate(-81.3 -343.11)"/><path d="M106.82,352.71a1.14,1.14,0,0,0,1.14-1.14v-2.44a1.14,1.14,0,1,0-2.29,0v2.44a1.14,1.14,0,0,0,1.14,1.14h0Zm0,0" transform="translate(-81.3 -343.11)"/><path d="M94.05,368.55h21.3a1.14,1.14,0,1,0,0-2.29H94.05a1.14,1.14,0,0,0,0,2.29h0Zm0,0" transform="translate(-81.3 -343.11)"/><path d="M94.05,373.43h26.17a1.14,1.14,0,1,0,0-2.29H94.05a1.14,1.14,0,0,0,0,2.29h0Zm0,0" transform="translate(-81.3 -343.11)"/><path d="M94.05,380.74h21.3a1.14,1.14,0,1,0,0-2.29H94.05a1.14,1.14,0,0,0,0,2.29h0Zm0,0" transform="translate(-81.3 -343.11)"/><path d="M94.05,385.61h26.17a1.14,1.14,0,1,0,0-2.29H94.05a1.14,1.14,0,0,0,0,2.29h0Zm0,0" transform="translate(-81.3 -343.11)"/><path d="M94.05,392.93h21.3a1.14,1.14,0,1,0,0-2.29H94.05a1.14,1.14,0,0,0,0,2.29h0Zm0,0" transform="translate(-81.3 -343.11)"/><path d="M94.05,397.8h26.17a1.14,1.14,0,1,0,0-2.29H94.05a1.14,1.14,0,0,0,0,2.29h0Zm0,0" transform="translate(-81.3 -343.11)"/></symbol><symbol id="ico-private-2" viewBox="0 0 70.47 70.47" xmlns="http://www.w3.org/2000/svg"><title>ico-private-2</title><path d="M85.95,478.33a1.28,1.28,0,1,1,0-2.57A1.29,1.29,0,0,1,85.95,478.33Z" transform="translate(-69.86 -437.71)"/><path d="M105.24,457.15a9.72,9.72,0,1,1,9.72-9.72A9.73,9.73,0,0,1,105.24,457.15Zm0-16.91a7.19,7.19,0,1,0,7.19,7.19A7.2,7.2,0,0,0,105.24,440.24Z" transform="translate(-69.86 -437.71)"/><path d="M96.78,469.84a1.26,1.26,0,1,1,0-2.53h16.91a1.26,1.26,0,0,1,0,2.53H96.78Z" transform="translate(-69.86 -437.71)"/><path d="M111.58,508.17a1.26,1.26,0,0,1-1.26-1.26v-3H98.89c-0.74,0-1.54,0-2.32-.11l-0.93-.08v3.15a1.26,1.26,0,0,1-1.26,1.26H85.92a1.26,1.26,0,0,1-1.26-1.26c0-.05,0-4.64,0-7.44v-0.4l-0.3-.25a23.17,23.17,0,0,1-5.7-7.24l-0.23-.46H75.35a5.49,5.49,0,0,1-5.49-5.48v-4.37a5.5,5.5,0,0,1,5.49-5.49h1.59l0.18-.62A22.43,22.43,0,0,1,82.32,466l0.23-.25v-9.85a1.26,1.26,0,0,1,1.26-1.26A13.73,13.73,0,0,1,93.9,459l0.32,0.34,0.46-.08a24.16,24.16,0,0,1,4.22-.41h10.57a22.56,22.56,0,0,1,22.31,20.37l0.07,0.77h0.78a5.11,5.11,0,0,0,5.18-5.08,5,5,0,0,0-1.49-3.59,1.26,1.26,0,1,1,1.79-1.79,7.61,7.61,0,0,1-5.38,13h-0.78l-0.17.77a23.22,23.22,0,0,1-3,9.45,22.53,22.53,0,0,1-7.1,7.57l-0.38.25V501c0,3.1,0,5.85,0,5.88a1.26,1.26,0,0,1-1.26,1.26h-8.46Zm0-11a1.26,1.26,0,0,1,1.26,1.26v7.19h5.93v-5.8a1.27,1.27,0,0,1,.63-1.09,20.47,20.47,0,0,0,9.93-17.5,19.9,19.9,0,0,0-19.88-19.88H98.89A22.09,22.09,0,0,0,94,462a1.28,1.28,0,0,1-.29,0,1.26,1.26,0,0,1-1-.48,11.49,11.49,0,0,0-6.64-4.15l-1-.21v9.09a1.27,1.27,0,0,1-.38.9A19.85,19.85,0,0,0,79.51,476c-0.05.32-.2,0.9-0.28,1.24a1.29,1.29,0,0,1-1.33,1.05H75.35a3,3,0,0,0-3,3v4.37a3,3,0,0,0,3,3c1.25,0,3.48,0,3.94,0a1.26,1.26,0,0,1,1.1.76,20.49,20.49,0,0,0,6.28,8.06,1.27,1.27,0,0,1,.5,1c0,1.56,0,4.4,0,6.36v0.85h5.93v-7.19a1.26,1.26,0,1,1,2.53,0v2.75l0.76,0.08a24.18,24.18,0,0,0,2.49.13h11.42v-3A1.26,1.26,0,0,1,111.58,497.19Z" transform="translate(-69.86 -437.71)"/></symbol><symbol id="ico-private-3" viewBox="0 0 64.41 57.75" xmlns="http://www.w3.org/2000/svg"><title>ico-private-3</title><path d="M135.2,580.35H73.41a1.31,1.31,0,0,0-1.31,1.31v18.4a1.31,1.31,0,0,0,1.31,1.31H135.2a1.31,1.31,0,0,0,1.31-1.31v-18.4a1.31,1.31,0,0,0-1.31-1.31h0Zm-1.31,18.4H74.73V583h59.15v15.77Zm0,0" transform="translate(-72.1 -543.63)"/><path d="M77.53,593.5a1.31,1.31,0,0,0,1.8.48l1.44-.83v1.67a1.31,1.31,0,1,0,2.63,0v-1.67L84.84,594a1.31,1.31,0,0,0,1.31-2.28l-1.44-.83,1.44-.83a1.31,1.31,0,0,0-1.31-2.28l-1.44.83v-1.67a1.31,1.31,0,1,0-2.63,0v1.67l-1.44-.83A1.31,1.31,0,0,0,78,590l1.44,0.83L78,591.7a1.31,1.31,0,0,0-.48,1.8h0Zm0,0" transform="translate(-72.1 -543.63)"/><path d="M90.1,590l1.44,0.83-1.44.83A1.31,1.31,0,1,0,91.42,594l1.44-.83v1.67a1.31,1.31,0,0,0,2.63,0v-1.67L96.93,594a1.31,1.31,0,1,0,1.31-2.28l-1.44-.83,1.44-.83a1.31,1.31,0,0,0-1.31-2.28l-1.44.83v-1.67a1.31,1.31,0,0,0-2.63,0v1.67l-1.44-.83A1.31,1.31,0,0,0,90.1,590h0Zm0,0" transform="translate(-72.1 -543.63)"/><path d="M101.71,593.5a1.31,1.31,0,0,0,1.8.48l1.44-.83v1.67a1.31,1.31,0,0,0,2.63,0v-1.67L109,594a1.31,1.31,0,0,0,1.31-2.28l-1.44-.83,1.44-.83a1.31,1.31,0,0,0-1.31-2.28l-1.44.83v-1.67a1.31,1.31,0,0,0-2.63,0v1.67l-1.44-.83a1.31,1.31,0,0,0-1.31,2.28l1.44,0.83-1.44.83a1.31,1.31,0,0,0-.48,1.8h0Zm0,0" transform="translate(-72.1 -543.63)"/><path d="M113.8,593.5a1.31,1.31,0,0,0,1.8.48l1.44-.83v1.67a1.31,1.31,0,0,0,2.63,0v-1.67l1.44,0.83a1.31,1.31,0,0,0,1.31-2.28l-1.44-.83,1.44-.83a1.31,1.31,0,1,0-1.31-2.28l-1.44.83v-1.67a1.31,1.31,0,0,0-2.63,0v1.67l-1.44-.83a1.31,1.31,0,0,0-1.31,2.28l1.44,0.83-1.44.83a1.31,1.31,0,0,0-.48,1.8h0Zm0,0" transform="translate(-72.1 -543.63)"/><path d="M126.26,596.13h3.62a1.31,1.31,0,0,0,0-2.63h-3.62a1.31,1.31,0,0,0,0,2.63h0Zm0,0" transform="translate(-72.1 -543.63)"/><path d="M94.36,578.47h19.89a3.2,3.2,0,0,0,3.2-3.2V560a3.2,3.2,0,0,0-3.2-3.2h-0.09v-3.29a9.86,9.86,0,0,0-19.72,0v3.29H94.36a3.2,3.2,0,0,0-3.2,3.2v15.29a3.2,3.2,0,0,0,3.2,3.2h0Zm2.72-25a7.23,7.23,0,0,1,14.46,0v3.29H108.9v-3.29a4.6,4.6,0,0,0-9.2,0v3.29H97.07v-3.29Zm9.2,0v3.29h-3.94v-3.29a2,2,0,0,1,3.94,0h0ZM93.79,560a0.57,0.57,0,0,1,.57-0.57h19.89a0.57,0.57,0,0,1,.57.57v15.29a0.57,0.57,0,0,1-.57.57H94.36a0.57,0.57,0,0,1-.57-0.57V560Zm0,0" transform="translate(-72.1 -543.63)"/><path d="M109.65,568.94h0a1.31,1.31,0,0,0,0-2.63h0a1.31,1.31,0,0,0,0,2.63h0Zm0,0" transform="translate(-72.1 -543.63)"/><path d="M98.93,568.94h6a1.31,1.31,0,1,0,0-2.63h-6a1.31,1.31,0,0,0,0,2.63h0Zm0,0" transform="translate(-72.1 -543.63)"/></symbol><symbol id="ico-private-4" viewBox="0 0 51.04 70.54" xmlns="http://www.w3.org/2000/svg"><title>ico-private-4</title><path d="M408.8,348.7H400a3.59,3.59,0,0,0-3.39-2.44h-3.72a6,6,0,0,0-9.62,0h-3.72a3.59,3.59,0,0,0-3.39,2.44h-8.8a4.8,4.8,0,0,0-4.8,4.8v56.07a4.8,4.8,0,0,0,4.8,4.8H408.8a4.8,4.8,0,0,0,4.8-4.8V353.49a4.8,4.8,0,0,0-4.8-4.8h0Zm-32.65,7.16a3.59,3.59,0,0,0,3.39,2.44h17.06a3.59,3.59,0,0,0,3.39-2.44h6.43V407.2H369.72V355.86h6.43Zm3.39-7.31h4.33a1.14,1.14,0,0,0,1-.57,3.69,3.69,0,0,1,6.42,0,1.14,1.14,0,0,0,1,.57h4.33a1.3,1.3,0,0,1,1.29,1.29v4.87h0a1.3,1.3,0,0,1-1.29,1.29H379.55a1.3,1.3,0,0,1-1.3-1.29h0v-4.87a1.3,1.3,0,0,1,1.3-1.29h0Zm31.77,61a2.52,2.52,0,0,1-2.51,2.51H367.36a2.52,2.52,0,0,1-2.51-2.51V353.49a2.52,2.52,0,0,1,2.51-2.51H376v2.59h-7.39a1.14,1.14,0,0,0-1.14,1.14v53.63a1.14,1.14,0,0,0,1.14,1.14h39a1.14,1.14,0,0,0,1.14-1.14V354.71a1.14,1.14,0,0,0-1.14-1.14h-7.39V351h8.61a2.52,2.52,0,0,1,2.51,2.51v56.07Zm0,0" transform="translate(-362.56 -343.82)"/><path d="M388.08,353.42a1.14,1.14,0,0,0,1.14-1.14v-2.44a1.14,1.14,0,1,0-2.29,0v2.44a1.14,1.14,0,0,0,1.14,1.14h0Zm0,0" transform="translate(-362.56 -343.82)"/><path d="M389.3,369.26h7.31a1.14,1.14,0,1,0,0-2.29H389.3a1.14,1.14,0,0,0,0,2.29h0Zm0,0" transform="translate(-362.56 -343.82)"/><path d="M389.3,374.14h12.19a1.14,1.14,0,1,0,0-2.29H389.3a1.14,1.14,0,0,0,0,2.29h0Zm0,0" transform="translate(-362.56 -343.82)"/><path d="M377.52,373.8a1.14,1.14,0,0,0,1.62,0l6.09-6.09a1.14,1.14,0,0,0-1.62-1.62l-5.29,5.29-2.85-2.85a1.14,1.14,0,0,0-1.62,1.62Zm0,0" transform="translate(-362.56 -343.82)"/><path d="M389.3,381.45h7.31a1.14,1.14,0,1,0,0-2.29H389.3a1.14,1.14,0,0,0,0,2.29h0Zm0,0" transform="translate(-362.56 -343.82)"/><path d="M389.3,386.33h12.19a1.14,1.14,0,1,0,0-2.29H389.3a1.14,1.14,0,0,0,0,2.29h0Zm0,0" transform="translate(-362.56 -343.82)"/><path d="M377.52,386a1.14,1.14,0,0,0,1.62,0l6.09-6.09a1.14,1.14,0,1,0-1.62-1.62l-5.29,5.29-2.85-2.85a1.14,1.14,0,0,0-1.62,1.62Zm0,0" transform="translate(-362.56 -343.82)"/><path d="M389.3,393.64h7.31a1.14,1.14,0,1,0,0-2.29H389.3a1.14,1.14,0,0,0,0,2.29h0Zm0,0" transform="translate(-362.56 -343.82)"/><path d="M389.3,398.52h12.19a1.14,1.14,0,1,0,0-2.29H389.3a1.14,1.14,0,0,0,0,2.29h0Zm0,0" transform="translate(-362.56 -343.82)"/><path d="M377.52,398.18a1.14,1.14,0,0,0,1.62,0l6.09-6.09a1.14,1.14,0,0,0-1.62-1.62l-5.29,5.29-2.85-2.85a1.14,1.14,0,0,0-1.62,1.62Zm0,0" transform="translate(-362.56 -343.82)"/></symbol><symbol id="ico-private-5" viewBox="0 0 64.77 66.21" xmlns="http://www.w3.org/2000/svg"><defs><style>.jcls-1{fill:#1d1d1b}</style></defs><title>ico-private-5</title><path class="jcls-1" d="M399.56,497.56a1.09,1.09,0,0,0,.37-0.07l11.22-4.14a1.08,1.08,0,0,0-.75-2l-11.22,4.14A1.08,1.08,0,0,0,399.56,497.56Z" transform="translate(-362 -439.83)"/><path class="jcls-1" d="M396,498.87a1.08,1.08,0,0,0,.37-0.07l0.48-.18a1.08,1.08,0,1,0-.75-2l-0.48.18A1.08,1.08,0,0,0,396,498.87Z" transform="translate(-362 -439.83)"/><path class="jcls-1" d="M401.91,492.29a1.08,1.08,0,0,0,.37-0.07l8.87-3.27a1.08,1.08,0,1,0-.75-2l-8.87,3.27A1.08,1.08,0,0,0,401.91,492.29Z" transform="translate(-362 -439.83)"/><path class="jcls-1" d="M401.91,487.94a1.07,1.07,0,0,0,.37-0.07l8.87-3.27a1.08,1.08,0,1,0-.75-2l-8.87,3.27A1.08,1.08,0,0,0,401.91,487.94Z" transform="translate(-362 -439.83)"/><path class="jcls-1" d="M415.47,463.47l-26-9.6a1.08,1.08,0,0,0-.75,0l-26,9.6h0a1.08,1.08,0,0,0-.71,1v30.88a1.08,1.08,0,0,0,.71,1l26,9.6a1.07,1.07,0,0,0,.75,0h0l26-9.6a1.08,1.08,0,0,0,.71-1V464.48A1.08,1.08,0,0,0,415.47,463.47ZM388,503.41l-23.85-8.8V466l4.86,1.79V480.9a1.08,1.08,0,0,0,.71,1l11.65,4.3a1.08,1.08,0,0,0,1.45-1V472.92l5.18,1.91v28.58Zm-7.34-31.28v11.53l-9.5-3.5V468.62Zm-7.46-5.06,8.54-3.15,8.54,3.15-8.54,3.15Zm15.88,5.87-4.23-1.56,8.92-3.29a1.08,1.08,0,0,0,0-2l-11.65-4.3a1.08,1.08,0,0,0-.75,0l-11.29,4.17-3.89-1.43L389.09,456,412,464.48ZM414,494.61l-23.85,8.8V474.83L414,466v28.57Z" transform="translate(-362 -439.83)"/><path class="jcls-1" d="M393.58,439.83a33.09,33.09,0,0,0-15.91,4.06l-2.09-3.23a1.8,1.8,0,0,0-3.12.16l-4.78,9.35a1.8,1.8,0,0,0,1.7,2.62l10.49-.53a1.8,1.8,0,0,0,1.42-2.78l-2-3.06a30.2,30.2,0,0,1,40.57,41.43,1.5,1.5,0,1,0,2.61,1.48A33.2,33.2,0,0,0,393.58,439.83Z" transform="translate(-362 -439.83)"/></symbol><symbol id="ico-private-6" viewBox="0 0 73.26 64.31" xmlns="http://www.w3.org/2000/svg"><title>ico-private-6</title><path d="M392.27,599.56a1.51,1.51,0,0,1-1.07-.43l-29.71-29.71a20,20,0,1,1,28.29-28.29l2.48,2.48,2.45-2.45A20,20,0,1,1,423,569.47l-29.65,29.65A1.54,1.54,0,0,1,392.27,599.56ZM375.6,538.32a16.93,16.93,0,0,0-11.93,28.92l28.61,28.61,28.55-28.57a16.94,16.94,0,1,0-23.94-24l-3.55,3.55a1.57,1.57,0,0,1-1.1.42,1.53,1.53,0,0,1-1.08-.42l-3.56-3.56A16.87,16.87,0,0,0,375.6,538.32Z" transform="translate(-355.61 -535.25)"/></symbol><symbol viewBox="0 0 15 28" id="left" xmlns="http://www.w3.org/2000/svg">
    <g>
        <g id="letalon" transform="translate(-838.000000, -2513.000000)">
            <g id="larrow" transform="translate(735.000000, 2513.000000)">
                <g id="lhover" transform="translate(103.000000, 0.000000)">
                    <path d="M1.36363636,-1.13686838e-13 L15,14 L13.6363636,15.4 L0,1.4 L1.36363636,-1.13686838e-13 Z M12.2727273,14 L13.6363636,15.4 L1.36363636,28 L0,26.6 L12.2727273,14 Z" id="lleft" transform="translate(7.500000, 14.000000) scale(-1, 1) translate(-7.500000, -14.000000) "/>
                </g>
            </g>
        </g>
    </g>
</symbol><symbol id="login-icon" viewBox="0 0 72 63" xmlns="http://www.w3.org/2000/svg"><title>login-icon</title><path d="M396.55,198.19a2.25,2.25,0,0,0,3.18,3.18l15.52-15.52a2.6,2.6,0,0,0,0-3.41l-15.52-15.52a2.25,2.25,0,0,0-3.18,3.18l11.8,11.8H359.78a2.25,2.25,0,0,0,0,4.5h48.57Zm24-45.54h-45a9,9,0,0,0-9,9v9H371v-9a4.5,4.5,0,0,1,4.5-4.5h45a4.5,4.5,0,0,1,4.5,4.5v45a4.5,4.5,0,0,1-4.5,4.5h-45a4.5,4.5,0,0,1-4.5-4.5v-9h-4.5v9a9,9,0,0,0,9,9h45a9,9,0,0,0,9-9v-45a9,9,0,0,0-9-9h0Zm0,0" transform="translate(-357.53 -152.65)"/></symbol><symbol id="magnifying-glass" viewBox="0 0 451 451" style="enable-background:new 0 0 451 451;" xml:space="preserve" xmlns="http://www.w3.org/2000/svg">
<g>
	<path d="M447.05,428l-109.6-109.6c29.4-33.8,47.2-77.9,47.2-126.1C384.65,86.2,298.35,0,192.35,0C86.25,0,0.05,86.3,0.05,192.3   s86.3,192.3,192.3,192.3c48.2,0,92.3-17.8,126.1-47.2L428.05,447c2.6,2.6,6.1,4,9.5,4s6.9-1.3,9.5-4   C452.25,441.8,452.25,433.2,447.05,428z M26.95,192.3c0-91.2,74.2-165.3,165.3-165.3c91.2,0,165.3,74.2,165.3,165.3   s-74.1,165.4-165.3,165.4C101.15,357.7,26.95,283.5,26.95,192.3z" fill="#FFFFFF"/>
</g>
<g>
</g>
<g>
</g>
<g>
</g>
<g>
</g>
<g>
</g>
<g>
</g>
<g>
</g>
<g>
</g>
<g>
</g>
<g>
</g>
<g>
</g>
<g>
</g>
<g>
</g>
<g>
</g>
<g>
</g>
</symbol><symbol id="musica-searcher" viewBox="0 0 250.313 250.313" style="enable-background:new 0 0 250.313 250.313;" xml:space="preserve" xmlns="http://www.w3.org/2000/svg">
<g id="oSearch">
	<path style="fill-rule:evenodd;clip-rule:evenodd;" d="M244.186,214.604l-54.379-54.378c-0.289-0.289-0.628-0.491-0.93-0.76   c10.7-16.231,16.945-35.66,16.945-56.554C205.822,46.075,159.747,0,102.911,0S0,46.075,0,102.911   c0,56.835,46.074,102.911,102.91,102.911c20.895,0,40.323-6.245,56.554-16.945c0.269,0.301,0.47,0.64,0.759,0.929l54.38,54.38   c8.169,8.168,21.413,8.168,29.583,0C252.354,236.017,252.354,222.773,244.186,214.604z M102.911,170.146   c-37.134,0-67.236-30.102-67.236-67.235c0-37.134,30.103-67.236,67.236-67.236c37.132,0,67.235,30.103,67.235,67.236   C170.146,140.044,140.043,170.146,102.911,170.146z" fill="#FFFFFF"/>
</g>
<g>
</g>
<g>
</g>
<g>
</g>
<g>
</g>
<g>
</g>
<g>
</g>
<g>
</g>
<g>
</g>
<g>
</g>
<g>
</g>
<g>
</g>
<g>
</g>
<g>
</g>
<g>
</g>
<g>
</g>
</symbol><symbol id="placeholder" viewBox="0 0 60 60" style="enable-background:new 0 0 60 60;" xml:space="preserve" xmlns="http://www.w3.org/2000/svg">
<g>
	<path d="M30,26c3.86,0,7-3.141,7-7s-3.14-7-7-7s-7,3.141-7,7S26.14,26,30,26z M30,14c2.757,0,5,2.243,5,5s-2.243,5-5,5   s-5-2.243-5-5S27.243,14,30,14z" fill="#FFFFFF"/>
	<path d="M29.823,54.757L45.164,32.6c5.754-7.671,4.922-20.28-1.781-26.982C39.761,1.995,34.945,0,29.823,0   s-9.938,1.995-13.56,5.617c-6.703,6.702-7.535,19.311-1.804,26.952L29.823,54.757z M17.677,7.031C20.922,3.787,25.235,2,29.823,2   s8.901,1.787,12.146,5.031c6.05,6.049,6.795,17.437,1.573,24.399L29.823,51.243L16.082,31.4   C10.882,24.468,11.628,13.08,17.677,7.031z" fill="#FFFFFF"/>
	<path d="M42.117,43.007c-0.55-0.067-1.046,0.327-1.11,0.876s0.328,1.046,0.876,1.11C52.399,46.231,58,49.567,58,51.5   c0,2.714-10.652,6.5-28,6.5S2,54.214,2,51.5c0-1.933,5.601-5.269,16.117-6.507c0.548-0.064,0.94-0.562,0.876-1.11   c-0.065-0.549-0.561-0.945-1.11-0.876C7.354,44.247,0,47.739,0,51.5C0,55.724,10.305,60,30,60s30-4.276,30-8.5   C60,47.739,52.646,44.247,42.117,43.007z" fill="#FFFFFF"/>
</g>
<g>
</g>
<g>
</g>
<g>
</g>
<g>
</g>
<g>
</g>
<g>
</g>
<g>
</g>
<g>
</g>
<g>
</g>
<g>
</g>
<g>
</g>
<g>
</g>
<g>
</g>
<g>
</g>
<g>
</g>
</symbol><symbol viewBox="0 0 15 28" id="right" xmlns="http://www.w3.org/2000/svg">
    <g>
        <g id="qetalon" transform="translate(-888.000000, -2513.000000)">
            <g id="qarrow" transform="translate(735.000000, 2513.000000)">
                <g id="qhover" transform="translate(103.000000, 0.000000)">
                    <path d="M51.3636364,-1.13686838e-13 L65,14 L63.6363636,15.4 L50,1.4 L51.3636364,-1.13686838e-13 Z M62.2727273,14 L63.6363636,15.4 L51.3636364,28 L50,26.6 L62.2727273,14 Z" id="qright"/>
                </g>
            </g>
        </g>
    </g>
</symbol><symbol id="search" viewBox="0 0 56.966 56.966" style="enable-background:new 0 0 56.966 56.966;" xml:space="preserve" xmlns="http://www.w3.org/2000/svg">
<path d="M55.146,51.887L41.588,37.786c3.486-4.144,5.396-9.358,5.396-14.786c0-12.682-10.318-23-23-23s-23,10.318-23,23  s10.318,23,23,23c4.761,0,9.298-1.436,13.177-4.162l13.661,14.208c0.571,0.593,1.339,0.92,2.162,0.92  c0.779,0,1.518-0.297,2.079-0.837C56.255,54.982,56.293,53.08,55.146,51.887z M23.984,6c9.374,0,17,7.626,17,17s-7.626,17-17,17  s-17-7.626-17-17S14.61,6,23.984,6z" fill="#FFFFFF"/>
<g>
</g>
<g>
</g>
<g>
</g>
<g>
</g>
<g>
</g>
<g>
</g>
<g>
</g>
<g>
</g>
<g>
</g>
<g>
</g>
<g>
</g>
<g>
</g>
<g>
</g>
<g>
</g>
<g>
</g>
</symbol><symbol id="shopping-cart" viewBox="0 0 71.43 66.94" xmlns="http://www.w3.org/2000/svg"><title>shopping-cart</title><path d="M411.16,124.11l-0.5,0a7,7,0,0,1-6.46-6.17,7.07,7.07,0,0,1,.35-3.11l0.4-1.13H393.37l0.4,1.13a6.94,6.94,0,0,1,.39,2.3,7,7,0,0,1-7,7l-0.5,0a7,7,0,0,1-6.48-6.42,7.12,7.12,0,0,1,.38-2.89l0.37-1.06-1.12-.07a7.18,7.18,0,0,1-1.27-14.13l0.85-.21L373,76.72l-4.64-16.39H359a1.46,1.46,0,0,1-1.46-1.46V58.63A1.46,1.46,0,0,1,359,57.16h10.16a2.22,2.22,0,0,1,2.12,1.61l2.61,9.11,1-.59a6,6,0,0,1,3.12-.89H422.9a6.07,6.07,0,0,1,4.73,2.18,5.93,5.93,0,0,1,1.15,5.21l-6.11,24.58a5.94,5.94,0,0,1-5.77,4.51H380.26a3.6,3.6,0,0,0-3.6,3.74,3.64,3.64,0,0,0,3.68,3.46H411A7,7,0,1,1,411.16,124.11Zm0-10.45a3.44,3.44,0,1,0,3.44,3.44A3.44,3.44,0,0,0,411.18,113.66Zm-24,0a3.44,3.44,0,1,0,3.44,3.44A3.44,3.44,0,0,0,387.16,113.66Zm24.65-14.34h5.1a2.37,2.37,0,0,0,2.31-1.81l1.31-5.23H413.3Zm-9.34,0h5.7l1.48-7h-7.17v7Zm-8.83,0h5.24v-7h-6.79Zm-11.05-1.74a2.37,2.37,0,0,0,2.29,1.74h0.85v0H390l-1.55-7h-7.36ZM414,88.69h7.35l1.83-7.36H415.6Zm-11.58,0h7.94L412,81.33h-9.49v7.36Zm-11.16,0h7.58V81.33H389.7Zm-11.22,0h7.58l-1.61-7.36h-8Zm-3.28-10.92,0.85,0h7.62L383.56,70h-5.61a2.33,2.33,0,0,0-1.9,1,2.29,2.29,0,0,0-.39,2.07l1.15,4v0.73Zm25.66,0H412.7L414.35,70H402.47v7.81Zm-13.55,0h10V70H387.2Zm27.42,0h7.76l1.2-4.85a2.39,2.39,0,0,0-2.31-3h-5Z" transform="translate(-357.53 -57.16)"/></symbol><symbol id="van" viewBox="0 0 71.44 59.28" xmlns="http://www.w3.org/2000/svg"><defs><style>.tcls-1{fill:#1d1d1b}</style></defs><title>van</title><path class="tcls-1" d="M133.86,180.63V179a4.47,4.47,0,0,0-4.47-4.47H114.51V167.1a1.49,1.49,0,0,0-1.49-1.49h-4.46v-4.46a1.49,1.49,0,0,0-1.49-1.49H86.85l-2.54-2.54a1.49,1.49,0,0,0-2.1,0l-8.5,8.49H71.35a1.49,1.49,0,0,0-1.49,1.49v41.68a1.49,1.49,0,0,0,1.49,1.49h6.2a7.33,7.33,0,0,0,14.28,0H120a7.33,7.33,0,0,0,14.29,0h5.57a1.49,1.49,0,0,0,1.49-1.49V189.43A8.94,8.94,0,0,0,133.86,180.63Zm-28.28-18v3H92.8l-3-3h15.76Zm-22.33-2.36,1.92,1.92h0l3.41,3.41H77.92ZM84.69,213A4.33,4.33,0,1,1,89,208.63,4.34,4.34,0,0,1,84.69,213Zm26.84-5.67H91.9a7.33,7.33,0,0,0-14.41,0H72.84v-38.7h38.7v38.7ZM127.11,213a4.33,4.33,0,1,1,4.33-4.33A4.34,4.34,0,0,1,127.11,213Zm11.22-5.67h-4a7.33,7.33,0,0,0-14.41,0h-5.39V177.52H129.4a1.49,1.49,0,0,1,1.49,1.49v1.49H120.47A1.49,1.49,0,0,0,119,182v13.4a1.49,1.49,0,0,0,1.49,1.49h17.86v10.42Zm-13.4-23.81V193.9h-3V183.48h3Zm13.4,10.42H127.91V183.48h4.46a6,6,0,0,1,6,6v4.47Z" transform="translate(-69.86 -156.69)"/><path class="tcls-1" d="M84.11,195.64c3.08,0,6.85-1.53,6.85-5.59V179a0.64,0.64,0,0,0-.75-0.75H87.65a0.64,0.64,0,0,0-.75.75v10.5a2.79,2.79,0,0,1-5.56,0V179a0.64,0.64,0,0,0-.75-0.75H78a0.64,0.64,0,0,0-.75.75v11.07C77.28,194.12,81,195.64,84.11,195.64Z" transform="translate(-69.86 -156.69)"/><path class="tcls-1" d="M95.33,195.25h2.56a0.64,0.64,0,0,0,.75-0.75v-4.29h2.48c4.42,0,6.8-2.38,6.8-6s-2.33-6-6.78-6H95.33a0.64,0.64,0,0,0-.75.75V194.5A0.64,0.64,0,0,0,95.33,195.25Zm3.31-13.37h2.48c2,0,2.9,1.09,2.9,2.43s-0.88,2.41-2.9,2.41H98.64v-4.84Z" transform="translate(-69.86 -156.69)"/></symbol></svg>